<?xml version="1.0" standalone="no"?>
<!DOCTYPE svg PUBLIC "-//W3C//DTD SVG 20010904//EN"
 "http://www.w3.org/TR/2001/REC-SVG-20010904/DTD/svg10.dtd">
<svg version="1.0" xmlns="http://www.w3.org/2000/svg"
 width="1000.000000pt" height="1000.000000pt" viewBox="0 0 1000.000000 1000.000000"
 preserveAspectRatio="xMidYMid meet">
<metadata>
Created by potrace 1.11, written by Peter Selinger 2001-2013
</metadata>
<g transform="translate(0.000000,1000.000000) scale(0.100000,-0.100000)"
fill="#000000" stroke="none">
<path d="M3067 8972 c-80 -191 -115 -427 -93 -612 3 -19 7 -55 10 -79 18 -145
106 -372 197 -509 16 -24 29 -47 29 -51 0 -17 28 -19 34 -3 4 9 12 26 19 37 6
11 54 93 105 181 l92 162 210 -2 c116 0 210 0 210 0 0 1 -9 28 -19 61 -57 178
-178 370 -330 523 -58 58 -118 115 -132 127 -47 37 -172 119 -234 153 -33 18
-65 37 -71 41 -7 6 -16 -4 -27 -29z"/>
<path d="M4775 8752 c-234 -129 -418 -340 -511 -589 l-24 -63 38 -1 c152 -4
592 0 601 5 13 8 45 152 36 166 -3 5 -2 10 3 10 15 0 6 227 -12 305 -23 98
-58 195 -70 195 -6 0 -34 -13 -61 -28z"/>
<path d="M3896 8093 c-3 -3 -1 -15 4 -28 33 -88 51 -330 34 -470 -16 -138 -84
-371 -111 -382 -12 -5 -143 61 -197 99 -144 100 -270 213 -355 316 -24 29 -47
50 -52 45 -4 -4 -58 -96 -119 -203 -107 -186 -112 -196 -101 -225 24 -61 62
-191 69 -240 9 -63 8 -278 -1 -327 l-8 -36 -57 13 c-74 18 -183 59 -249 95
l-53 28 -44 -77 c-24 -42 -52 -92 -63 -111 -11 -19 -68 -118 -127 -219 -118
-202 -114 -185 -55 -241 34 -33 111 -146 138 -204 47 -102 64 -167 77 -284 l3
-34 -71 6 c-147 13 -252 43 -395 114 -29 14 -54 24 -56 21 -13 -14 -318 -552
-315 -555 2 -1 26 -6 54 -9 28 -3 65 -10 83 -15 17 -5 31 -6 31 -3 0 3 7 0 15
-7 8 -7 15 -10 15 -7 0 9 120 -38 188 -72 105 -53 288 -207 279 -236 -5 -15
-182 -102 -257 -126 -132 -42 -253 -61 -385 -61 -61 0 -159 9 -183 17 -18 6
-15 -8 11 -47 12 -18 29 -47 38 -63 9 -17 118 -205 241 -420 124 -214 235
-406 245 -425 11 -19 34 -59 52 -88 17 -29 31 -57 31 -62 0 -6 5 -10 10 -10 6
0 10 -4 10 -10 0 -5 22 -47 49 -92 27 -46 62 -106 77 -134 40 -70 233 -406
244 -424 20 -32 96 -166 103 -180 4 -8 18 -33 32 -55 14 -22 30 -49 35 -60 6
-11 20 -36 31 -55 80 -133 169 -291 169 -300 0 -5 3 -10 8 -10 4 0 12 -10 18
-23 15 -33 58 -111 64 -117 7 -7 29 -42 37 -59 12 -26 301 -525 316 -546 14
-19 25 -20 348 -20 l334 0 17 35 c33 70 87 209 93 241 2 8 10 40 19 70 9 30
16 55 16 57 0 1 0 3 1 5 6 20 29 155 35 203 3 27 7 63 9 79 10 83 5 293 -9
370 -3 17 -8 52 -11 79 -3 27 -8 52 -10 56 -3 5 1 10 7 12 15 5 -5 48 -101
213 -119 207 -183 347 -221 492 -26 94 -27 100 -35 155 -13 89 -14 105 -14
208 0 144 0 140 10 188 5 23 11 58 14 77 7 58 73 243 117 329 45 88 146 242
177 270 14 13 21 14 26 6 4 -7 3 -15 -3 -19 -16 -10 -90 -152 -112 -217 -43
-122 -54 -189 -54 -324 0 -157 15 -241 70 -387 68 -182 132 -288 245 -404 182
-185 292 -343 368 -525 18 -44 39 -93 46 -110 15 -35 61 -219 70 -279 22 -153
22 -352 0 -585 -8 -84 -17 -167 -21 -190 -2 -14 -6 -43 -9 -65 l-6 -40 1203 1
c662 1 1206 2 1210 3 3 0 13 13 21 29 8 15 38 68 67 117 29 50 58 99 64 110
19 33 139 244 159 278 11 18 29 50 40 72 12 22 24 42 27 45 3 3 41 68 85 145
43 77 82 142 85 145 3 3 15 23 27 45 27 50 48 89 109 193 27 46 61 105 75 130
15 26 35 61 45 79 11 17 50 85 87 150 37 65 79 138 94 163 14 25 37 65 51 90
13 25 28 50 32 55 5 6 21 33 37 60 24 44 140 245 168 293 6 9 43 76 84 147 41
72 139 241 218 377 79 136 143 252 143 257 0 6 4 11 9 11 5 0 14 15 22 32 7
18 15 35 19 38 3 3 36 58 73 124 43 74 66 124 62 135 -3 9 -6 18 -6 21 0 3 -6
12 -13 20 -11 12 -241 409 -312 537 -12 21 -54 94 -94 163 -40 68 -81 139 -91
157 -24 41 -39 67 -129 223 -40 69 -84 145 -98 170 -14 25 -45 78 -69 118 -24
41 -43 75 -43 78 0 3 -57 100 -90 154 -5 8 -24 42 -43 75 -74 130 -135 236
-147 255 -30 48 -60 104 -60 111 0 5 -4 9 -10 9 -5 0 -10 4 -10 9 0 8 -140
255 -290 511 -21 36 -49 84 -61 107 -13 23 -51 88 -84 145 -33 57 -61 109 -63
116 -2 6 -8 12 -13 12 -6 0 -8 4 -4 9 3 5 1 12 -4 15 -5 3 -35 52 -67 108 -31
57 -68 119 -81 138 l-23 35 -805 1 -806 1 6 -41 c36 -261 -89 -518 -327 -673
-57 -37 -138 -78 -173 -89 -58 -18 -97 -26 -101 -21 -12 11 -10 184 2 243 41
198 169 372 350 480 67 39 166 83 198 88 68 10 -26 13 -354 13 -298 -1 -380
-3 -380 -13 0 -39 -140 -304 -160 -304 -6 0 -10 -5 -10 -11 0 -13 -113 -135
-167 -179 -46 -39 -153 -110 -206 -138 l-57 -31 -15 29 c-20 38 -61 183 -70
245 -8 63 -13 207 -7 218 2 5 6 30 8 55 1 26 8 62 13 81 6 19 8 37 6 41 -5 7
-322 10 -329 3z m2322 -461 c11 -58 8 -266 -4 -336 -10 -60 -62 -215 -92 -271
-43 -82 -116 -187 -173 -249 -47 -51 -174 -156 -234 -193 -58 -37 -229 -114
-290 -131 -123 -35 -113 -37 -123 22 -16 92 -7 302 16 399 12 48 29 101 37
117 9 16 15 31 14 32 -4 7 55 128 63 128 4 0 8 5 8 11 0 20 94 142 165 213 39
39 105 94 147 123 71 49 226 133 246 133 5 0 23 7 40 16 17 8 43 17 56 20 14
2 34 8 46 12 11 4 31 9 44 10 22 1 25 -4 34 -56z m-1425 -397 c51 -86 108
-226 123 -305 3 -14 9 -42 13 -62 10 -42 7 -274 -3 -328 -37 -196 -143 -397
-284 -539 -72 -73 -154 -141 -168 -141 -30 0 -150 248 -168 346 -2 16 -7 39
-10 52 -31 141 -17 332 36 496 19 58 93 216 107 226 3 3 20 25 36 50 33 49
167 188 230 237 44 35 48 34 88 -32z m-1214 -192 c351 -279 436 -739 204
-1106 -21 -33 -26 -36 -44 -26 -38 20 -169 151 -213 213 -43 61 -104 179 -111
216 -2 11 -6 24 -9 28 -3 5 -7 19 -10 33 -3 13 -9 47 -15 74 -24 120 1 320 56
445 25 57 84 160 92 160 2 0 25 -17 50 -37z m3746 -251 c-4 -15 -7 -34 -7 -42
0 -26 -39 -152 -71 -230 -28 -67 -102 -207 -116 -220 -4 -3 -19 -23 -36 -45
-49 -67 -186 -200 -265 -257 -82 -60 -190 -123 -260 -152 -25 -10 -58 -24 -75
-31 -33 -14 -109 -39 -112 -37 -2 0 -17 -4 -35 -9 -37 -11 -71 -19 -108 -24
-14 -2 -25 -5 -25 -6 0 -7 -176 -21 -283 -23 -93 -1 -105 2 -104 24 6 129 128
422 219 526 10 12 32 39 48 60 37 46 136 142 190 183 22 17 46 36 53 42 75 64
335 186 455 215 9 2 25 6 35 8 9 2 28 7 42 10 35 8 77 15 135 22 28 4 51 7 52
8 2 2 64 3 139 4 l136 1 -7 -27z m-4439 -590 c82 -34 101 -45 174 -96 115 -82
205 -196 257 -326 6 -14 16 -38 22 -53 6 -16 9 -33 6 -38 -4 -5 -3 -9 2 -9 9
0 10 -10 16 -140 2 -52 0 -99 -4 -105 -8 -11 -9 -15 -9 -47 0 -47 -12 -51 -75
-29 -96 34 -204 102 -279 176 -70 69 -116 120 -116 130 0 3 -11 22 -23 43 -19
30 -55 117 -63 155 -1 4 -2 8 -4 10 -13 16 -21 234 -9 287 13 60 17 70 27 70
5 0 40 -13 78 -28z m2738 -114 c-6 -212 -67 -361 -203 -499 -99 -99 -236 -180
-348 -205 -86 -19 -81 -20 -89 31 -8 57 3 224 17 255 1 3 3 10 4 15 1 6 7 23
13 38 7 16 12 31 12 35 0 24 99 170 148 219 69 69 109 103 121 103 4 0 19 9
32 19 30 24 135 68 214 91 l60 17 10 -33 c6 -18 9 -57 9 -86z m-895 -353 c30
-80 35 -110 35 -205 0 -139 -29 -228 -112 -340 -47 -64 -185 -180 -215 -180
-12 0 -43 78 -59 151 -40 174 13 361 142 502 53 58 166 141 180 132 5 -3 18
-30 29 -60z m-981 -64 c105 -69 193 -179 236 -293 29 -76 37 -124 37 -203 -1
-79 -6 -106 -37 -192 -20 -56 -30 -73 -45 -73 -10 0 -19 5 -19 10 0 6 -6 10
-13 10 -29 0 -152 122 -196 195 -95 157 -114 347 -50 500 7 17 13 32 14 35 7
22 18 40 24 40 3 0 25 -13 49 -29z m2093 -360 l37 -1 -9 -40 c-38 -170 -153
-331 -309 -435 -63 -42 -180 -101 -180 -90 0 2 -15 -2 -33 -10 -76 -32 -342
-56 -358 -33 -16 24 53 201 107 275 47 65 167 176 226 211 111 65 237 108 352
119 34 3 62 6 63 7 1 1 17 1 35 0 18 -1 49 -2 69 -3z m859 -133 c223 -41 373
-104 538 -226 l33 -25 -38 -34 c-96 -86 -265 -175 -378 -199 -11 -2 -31 -7
-45 -9 -227 -49 -506 -7 -724 109 -87 47 -196 118 -196 130 0 39 255 197 359
222 9 2 34 8 56 14 22 5 65 13 95 16 30 4 57 8 59 10 7 6 197 0 241 -8z
m-3645 -148 c138 -25 274 -93 374 -186 63 -58 135 -161 156 -224 1 -3 7 -18
13 -33 7 -16 12 -30 12 -32 0 -2 -21 -8 -47 -14 -77 -16 -248 -11 -338 11 -85
20 -226 83 -262 117 -12 12 -26 21 -31 21 -22 0 -181 196 -187 230 -1 3 -9 22
-18 44 -9 21 -17 44 -17 51 0 13 83 31 98 21 4 -2 13 -1 20 3 18 11 148 6 227
-9z m1408 -242 c-8 -24 -17 -50 -19 -58 -2 -8 -15 -55 -29 -105 -26 -94 -31
-111 -40 -160 -3 -16 -9 -50 -15 -75 -8 -41 -14 -75 -27 -155 -3 -16 -6 -43
-8 -60 -2 -16 -4 -30 -5 -30 -1 0 -4 -43 -7 -95 -12 -171 -6 -389 11 -470 31
-142 33 -148 36 -155 1 -3 3 -8 4 -12 1 -5 4 -12 7 -18 9 -14 20 -65 15 -65
-7 0 -96 137 -96 148 0 5 -7 15 -15 22 -9 7 -13 15 -10 18 3 3 1 10 -5 16 -8
11 -80 173 -79 179 1 1 -5 22 -12 47 -17 60 -24 98 -35 180 -13 94 -3 274 17
328 5 13 7 28 3 33 -3 5 -1 9 3 9 5 0 10 11 11 25 2 33 57 154 109 243 43 74
90 137 150 202 18 19 33 38 33 43 0 4 4 7 9 7 5 0 2 -19 -6 -42z m-1478 -453
c89 -11 285 -80 285 -100 0 -15 -82 -124 -129 -172 -150 -154 -347 -236 -566
-236 -142 0 -218 16 -367 81 -33 14 -53 42 -30 42 5 0 14 11 20 24 33 72 180
211 287 270 64 36 212 84 277 91 28 3 52 6 54 8 4 4 116 -1 169 -8z m415 -25
c36 -11 66 -19 68 -19 5 1 88 -37 140 -63 110 -57 201 -129 290 -231 31 -35
33 -42 26 -80 -7 -42 -11 -106 -13 -207 l-1 -55 -43 85 c-39 77 -106 186 -154
249 -10 14 -56 64 -103 111 -93 95 -174 154 -262 190 -100 41 -63 55 52 20z
m2105 -44 c103 -12 128 -17 200 -37 91 -26 163 -53 250 -95 69 -33 145 -74
155 -84 3 -3 32 -23 65 -45 128 -86 298 -279 386 -439 33 -61 30 -74 -16 -77
-11 0 -28 -2 -37 -4 -82 -16 -295 -22 -348 -10 -14 3 -38 8 -55 10 -113 15
-156 26 -290 77 -223 84 -419 223 -571 406 -38 46 -71 89 -73 95 -2 7 -7 14
-11 17 -4 3 -26 40 -49 82 -32 58 -39 79 -29 83 65 25 290 36 423 21z m-510
-693 c-2 -49 -7 -99 -10 -113 -2 -14 -7 -38 -11 -55 -30 -147 -112 -311 -211
-424 l-38 -43 -34 47 c-18 25 -44 57 -58 71 l-25 25 23 17 c49 33 178 173 224
242 53 79 100 190 110 260 7 49 12 60 25 60 6 0 8 -37 5 -87z"/>
<path d="M2196 7861 c-9 -15 -19 -130 -18 -207 3 -199 57 -367 177 -549 54
-82 181 -206 275 -269 80 -54 79 -54 116 27 9 20 21 37 26 37 4 0 8 4 8 10 0
5 14 33 31 62 36 60 51 87 99 173 19 33 37 62 40 65 3 3 11 17 17 32 11 24 7
34 -37 108 -124 206 -291 349 -527 451 -35 15 -63 25 -63 23 0 -3 -10 1 -22 7
-32 17 -117 38 -122 30z"/>
<path d="M1445 7363 c2 -15 6 -44 8 -63 3 -19 16 -70 30 -112 79 -231 271
-420 521 -513 77 -29 203 -58 216 -50 17 10 -7 140 -40 226 -54 135 -182 296
-300 376 -98 66 -249 132 -340 147 -14 2 -42 7 -62 11 -36 7 -36 6 -33 -22z"/>
<path d="M1706 6394 c10 -129 63 -268 151 -391 71 -100 243 -249 262 -227 4 5
58 96 120 203 l112 194 -29 26 c-127 114 -356 208 -550 227 l-69 6 3 -38z"/>
<path d="M1255 5862 c-2 -2 -21 -5 -42 -7 -93 -7 -253 -58 -253 -81 0 -16 122
-142 167 -173 40 -27 149 -81 173 -86 10 -2 28 -9 39 -15 12 -6 21 -9 21 -6 0
3 20 -1 44 -8 60 -18 255 -18 336 0 74 17 94 22 98 24 1 2 5 3 10 4 4 1 12 4
17 7 6 4 22 9 38 13 15 3 27 13 27 20 0 40 -166 184 -270 234 -62 29 -177 65
-189 58 -5 -4 -12 -3 -15 2 -5 8 -42 11 -154 16 -24 1 -45 0 -47 -2z"/>
<path d="M1657 5183 c-1 -1 -33 -4 -72 -7 -84 -6 -206 -34 -296 -69 -64 -24
-209 -95 -209 -102 0 -8 98 -103 140 -137 60 -48 171 -109 245 -135 74 -27
135 -43 135 -37 0 3 -11 25 -25 50 l-25 44 49 83 c27 45 58 99 70 120 43 76
59 103 79 137 12 19 22 40 22 45 0 8 -106 16 -113 8z"/>
<path d="M4310 2677 c0 -2 23 -73 51 -158 46 -142 77 -259 110 -414 7 -33 13
-62 14 -65 1 -3 5 -31 9 -64 4 -32 9 -68 11 -80 3 -20 14 -117 21 -196 2 -19
4 -77 6 -128 2 -80 5 -93 21 -98 25 -8 28 -3 29 53 1 58 -12 286 -18 316 -2
12 -7 42 -10 67 -10 79 -66 325 -76 338 -6 6 -8 12 -5 12 11 0 -71 233 -118
336 -14 30 -25 59 -25 64 0 5 -4 12 -10 15 -5 3 -10 4 -10 2z"/>
<path d="M4152 1470 c-4 -3 -18 -27 -31 -55 -14 -27 -49 -91 -78 -142 -29 -51
-53 -94 -53 -97 0 -3 117 -5 260 -6 l260 -1 1 23 c0 13 2 46 5 73 8 116 11
205 5 206 -19 5 -363 4 -369 -1z"/>
<path d="M4595 1455 c-2 -11 -7 -58 -10 -105 -3 -47 -8 -107 -11 -133 l-5 -48
117 3 c95 2 118 6 120 18 5 27 24 125 29 150 3 14 8 45 11 70 4 25 7 49 8 55
0 5 -51 10 -127 10 -120 0 -128 -1 -132 -20z"/>
</g>
</svg>
