<?xml version="1.0" encoding="iso-8859-1"?>
<!-- Generator: Adobe Illustrator 19.0.0, SVG Export Plug-In . SVG Version: 6.00 Build 0)  -->
<svg version="1.1" id="Capa_1" xmlns="http://www.w3.org/2000/svg" xmlns:xlink="http://www.w3.org/1999/xlink" x="0px" y="0px"
	 viewBox="0 0 512 512" style="enable-background:new 0 0 512 512;" xml:space="preserve">
<g>
	<g>
		<path d="M502,305.443h-3.19v-63.06c0-10.922-3.109-21.558-8.991-30.759c-0.229-0.358-0.481-0.702-0.754-1.028l-65.16-77.932
			c-1.9-2.273-4.71-3.586-7.672-3.586H369.28V88.962c0-5.523-4.478-10-10-10H166.271c-33.671,0-63.174,21.132-74.302,52.259h-59.44
			C14.592,131.222,0,145.814,0,163.758c0,16.025,11.649,29.38,26.923,32.045c-1.755,3.989-2.73,8.391-2.73,13.007
			c0,16.023,11.643,29.377,26.914,32.044c-1.75,3.988-2.722,8.39-2.722,13.012c0,17.937,14.592,32.529,32.529,32.529h6.404v19.049
			h-3.189c-5.523,0-10,4.477-10,10v52.25c0,5.523,4.477,10,10,10h20.174c1.238,30.726,26.61,55.344,57.634,55.344
			s56.396-24.618,57.634-55.344h145.713c1.238,30.726,26.609,55.344,57.634,55.344c31.025,0,56.396-24.618,57.635-55.344H502
			c5.522,0,10-4.477,10-10v-52.25C512,309.92,507.522,305.443,502,305.443z M369.28,193.608h21.467l43.534,52.066v6.333H369.28
			V193.608z M369.28,272.007h75.001c5.522,0,10-4.477,10-10v-19.624c0-0.597-0.043-1.199-0.128-1.79
			c-0.264-1.839-1.035-3.569-2.227-4.995l-48.834-58.404c-1.9-2.272-4.71-3.585-7.672-3.585h-26.14v-24.53h42.28v-0.001
			l61.728,73.827c3.614,5.86,5.522,12.581,5.522,19.478v63.06H369.28V272.007z M166.271,98.962H349.28v166.914h-85.339
			c14.033-9.778,23.241-26.022,23.241-44.384c0-12.508-7.878-28.925-24.082-50.187c-6.175-8.102-12.299-15.225-16.646-20.084h37.483
			c5.523,0,10-4.477,10-10s-4.477-10-10-10H113.679C123.533,111.732,143.645,98.962,166.271,98.962z M203.121,171.306
			c-16.206,21.262-24.083,37.679-24.083,50.187c0,18.63,9.471,35.09,23.851,44.818c-4.101,1.248-7.085,5.057-7.085,9.566
			c0,5.523,4.477,10,10,10H349.28v19.566H107.318v-19.049h24.82c5.523,0,10-4.477,10-10V151.222h77.629
			C215.42,156.081,209.297,163.204,203.121,171.306z M233.114,166.242c15.977,18.037,34.069,43.128,34.069,55.252
			c0,18.787-15.285,34.072-34.072,34.072c-18.788,0-34.072-15.285-34.072-34.072C199.039,209.391,217.136,184.292,233.114,166.242z
			 M80.914,266.396c-6.908-0.001-12.529-5.622-12.529-12.53c0-6.886,5.603-12.506,12.489-12.527
			c5.517-0.017,9.978-4.499,9.969-10.015c-0.008-5.517-4.483-9.985-10-9.985H56.721c-6.908,0-12.528-5.621-12.528-12.529
			c0-6.846,5.57-12.465,12.417-12.524c5.506-0.048,9.937-4.537,9.913-10.043s-4.494-9.956-10-9.956H32.529
			c-6.908,0-12.529-5.62-12.529-12.535c0-6.908,5.621-12.528,12.529-12.528h89.609v115.172H80.914z M106.98,357.693H94.129v-32.25
			h38.699C120.714,332.481,111.377,343.845,106.98,357.693z M161.937,413.038c-20.785,0-37.694-16.909-37.694-37.694
			c0-18.816,13.859-34.455,31.904-37.249c0.033-0.005,0.065-0.011,0.097-0.015c0.535-0.081,1.075-0.147,1.617-0.206
			c0.108-0.011,0.215-0.026,0.323-0.036c0.489-0.049,0.983-0.083,1.478-0.113c0.137-0.008,0.274-0.021,0.412-0.028
			c0.617-0.03,1.238-0.047,1.863-0.047s1.245,0.017,1.863,0.047c0.138,0.007,0.274,0.02,0.411,0.028
			c0.495,0.03,0.989,0.064,1.478,0.113c0.108,0.01,0.215,0.025,0.322,0.036c0.542,0.059,1.083,0.125,1.618,0.206
			c0.032,0.005,0.064,0.01,0.096,0.015c18.046,2.793,31.905,18.432,31.905,37.249C199.631,396.128,182.722,413.038,161.937,413.038z
			 M367.961,357.693H216.894c-4.396-13.848-13.733-25.212-25.847-32.25h202.762C381.695,332.481,372.359,343.845,367.961,357.693z
			 M422.918,413.038c-20.784,0-37.693-16.909-37.693-37.694c0-18.816,13.859-34.455,31.905-37.249
			c0.032-0.005,0.064-0.01,0.096-0.015c0.535-0.081,1.076-0.148,1.618-0.206c0.108-0.011,0.215-0.026,0.322-0.036
			c0.49-0.049,0.983-0.083,1.478-0.113c0.137-0.008,0.273-0.021,0.411-0.028c0.617-0.03,1.238-0.047,1.863-0.047
			s1.245,0.017,1.863,0.047c0.138,0.007,0.274,0.02,0.412,0.028c0.495,0.03,0.988,0.064,1.477,0.113
			c0.108,0.011,0.216,0.025,0.324,0.036c0.542,0.059,1.081,0.125,1.616,0.206c0.033,0.005,0.066,0.01,0.098,0.016
			c18.046,2.794,31.904,18.432,31.904,37.249C460.612,396.128,443.703,413.038,422.918,413.038z M492,357.693h-14.124
			c-4.398-13.849-13.733-25.212-25.849-32.25H492V357.693z"/>
	</g>
</g>
<g>
	<g>
		<path d="M332.409,139.271c-0.13-0.64-0.32-1.27-0.57-1.87c-0.25-0.61-0.56-1.19-0.92-1.73c-0.37-0.55-0.79-1.06-1.25-1.52
			c-2.32-2.32-5.77-3.39-9.02-2.73c-0.64,0.13-1.27,0.32-1.869,0.57c-0.61,0.25-1.19,0.56-1.73,0.92c-0.55,0.36-1.06,0.78-1.52,1.24
			c-0.461,0.46-0.881,0.97-1.24,1.52c-0.36,0.54-0.67,1.12-0.92,1.73c-0.25,0.6-0.44,1.23-0.57,1.87s-0.2,1.3-0.2,1.95
			c0,0.65,0.07,1.31,0.2,1.96c0.13,0.63,0.32,1.26,0.57,1.87c0.25,0.6,0.56,1.18,0.92,1.72c0.359,0.55,0.779,1.06,1.24,1.52
			c0.46,0.46,0.97,0.88,1.52,1.25c0.54,0.36,1.12,0.67,1.73,0.92c0.6,0.25,1.229,0.44,1.869,0.57c0.641,0.13,1.301,0.19,1.95,0.19
			c2.641,0,5.21-1.07,7.07-2.93c0.47-0.46,0.88-0.97,1.25-1.52c0.36-0.54,0.67-1.12,0.92-1.72c0.25-0.61,0.44-1.24,0.57-1.87
			c0.13-0.65,0.189-1.31,0.189-1.96C332.598,140.57,332.538,139.911,332.409,139.271z"/>
	</g>
</g>
<g>
	<g>
		<path d="M176.94,273.92c-0.13-0.64-0.32-1.27-0.57-1.87c-0.25-0.6-0.56-1.18-0.92-1.72c-0.36-0.55-0.78-1.06-1.24-1.52
			c-0.46-0.46-0.97-0.88-1.52-1.25c-0.54-0.36-1.12-0.671-1.73-0.921c-0.6-0.25-1.23-0.44-1.87-0.57c-1.29-0.26-2.62-0.26-3.91,0
			c-0.63,0.13-1.26,0.32-1.87,0.57c-0.6,0.25-1.18,0.56-1.72,0.921c-0.55,0.37-1.06,0.79-1.52,1.25c-0.46,0.46-0.88,0.97-1.25,1.52
			c-0.36,0.54-0.67,1.12-0.92,1.72c-0.25,0.6-0.44,1.23-0.57,1.87c-0.13,0.65-0.19,1.31-0.19,1.96c0,0.65,0.06,1.31,0.19,1.95
			s0.32,1.27,0.57,1.87c0.25,0.6,0.56,1.19,0.92,1.73c0.37,0.55,0.79,1.06,1.25,1.52c0.46,0.46,0.97,0.88,1.52,1.24
			c0.54,0.36,1.12,0.67,1.72,0.92c0.61,0.25,1.24,0.44,1.87,0.57c0.65,0.13,1.31,0.2,1.96,0.2c0.65,0,1.31-0.07,1.95-0.2
			c0.64-0.13,1.27-0.32,1.87-0.57c0.61-0.25,1.19-0.56,1.73-0.92c0.55-0.36,1.06-0.78,1.52-1.24c0.46-0.46,0.88-0.97,1.24-1.52
			c0.36-0.54,0.67-1.13,0.92-1.73c0.25-0.6,0.44-1.23,0.57-1.87s0.2-1.3,0.2-1.95C177.14,275.23,177.07,274.57,176.94,273.92z"/>
	</g>
</g>
<g>
</g>
<g>
</g>
<g>
</g>
<g>
</g>
<g>
</g>
<g>
</g>
<g>
</g>
<g>
</g>
<g>
</g>
<g>
</g>
<g>
</g>
<g>
</g>
<g>
</g>
<g>
</g>
<g>
</g>
</svg>
