<?xml version="1.0" encoding="iso-8859-1"?>
<!-- Generator: Adobe Illustrator 19.0.0, SVG Export Plug-In . SVG Version: 6.00 Build 0)  -->
<svg version="1.1" id="Capa_1" xmlns="http://www.w3.org/2000/svg" xmlns:xlink="http://www.w3.org/1999/xlink" x="0px" y="0px"
	 viewBox="0 0 512 512" style="enable-background:new 0 0 512 512;" xml:space="preserve">
<g>
	<g>
		<g>
			<path d="M442.774,243.635h-3.908c1.004-2.962,1.557-6.129,1.557-9.426c0-16.226-13.2-29.427-29.426-29.427H231.771V101.249
				c4.869-0.673,8.623-4.84,8.623-9.894v-47c0-5.522-4.477-10-10-10h-48.581C180.135,15.133,163.962,0,144.312,0h-4.837
				c-19.65,0-35.823,15.133-37.5,34.355H53.393c-5.523,0-10,4.478-10,10v47c0,5.054,3.753,9.221,8.622,9.894v147.967
				c-7.391,5.351-12.213,14.042-12.213,23.844c0,16.226,13.2,29.426,29.426,29.426h34.969v12.971H69.514c-5.523,0-10,4.478-10,10
				V380c0,5.522,4.477,10,10,10h36.428c5.112,17.991,20.968,31.495,40.167,33.105l-12.766,77.265
				c-0.479,2.898,0.34,5.859,2.241,8.099c1.9,2.24,4.688,3.531,7.626,3.531h118.154c3.791,0,7.256-2.144,8.948-5.536l41.5-83.185
				h21.869c58.857,0,106.741-47.884,106.741-106.741v-14.052h2.35c16.226,0,29.426-13.2,29.426-29.426
				C472.2,256.835,459,243.635,442.774,243.635z M104.196,370H79.514v-34.543h24.682V370z M231.771,224.782h179.227
				c5.197,0,9.426,4.229,9.426,9.427c0,5.197-4.229,9.426-9.426,9.426H231.771V224.782z M139.474,20h4.837
				c8.608,0,15.796,6.192,17.345,14.355H122.13C123.678,26.192,130.867,20,139.474,20z M63.393,54.355h157v27h-157V54.355z
				 M100.245,150.617c-5.523,0-10,4.477-10,10v83.018h-18.23v-142.28h139.756v142.279H110.245v-83.017
				C110.245,155.094,105.768,150.617,100.245,150.617z M255.178,492h-100.18l3.304-20h106.854L255.178,492z M275.134,452H161.607
				l4.746-28.721h123.11L275.134,452z M333.683,403.279H149.965c-14.208,0-25.768-11.56-25.768-25.768v-42.055h206.818
				c5.523,0,10-4.478,10-10c0-5.522-4.477-10-10-10H124.196v-12.971h296.227v14.053h0
				C420.424,364.367,381.512,403.279,333.683,403.279z M442.779,282.486c0.016,0,0.028,0-0.006,0H69.228
				c-5.197,0-9.426-4.228-9.426-9.426c0-5.197,4.229-9.426,9.426-9.426h373.546c5.197,0,9.426,4.229,9.426,9.426
				C452.2,278.256,447.974,282.482,442.779,282.486z"/>
			<path d="M442.774,282.486c0.002,0,0.004,0,0.006,0C442.759,282.485,442.729,282.485,442.774,282.486z"/>
		</g>
	</g>
</g>
<g>
	<g>
		<path d="M379.481,323.5c-0.12-0.641-0.32-1.271-0.57-1.87c-0.25-0.601-0.55-1.18-0.91-1.72c-0.37-0.551-0.79-1.061-1.25-1.53
			c-0.46-0.46-0.97-0.87-1.52-1.24c-0.54-0.36-1.12-0.67-1.72-0.92c-0.61-0.25-1.24-0.44-1.88-0.57c-1.29-0.26-2.61-0.26-3.9,0
			c-0.64,0.13-1.27,0.32-1.87,0.57c-0.61,0.25-1.19,0.56-1.73,0.92c-0.55,0.37-1.06,0.78-1.52,1.24c-0.46,0.47-0.88,0.979-1.24,1.53
			c-0.36,0.54-0.67,1.119-0.92,1.72c-0.25,0.6-0.45,1.229-0.57,1.87c-0.13,0.649-0.2,1.3-0.2,1.96c0,0.649,0.07,1.31,0.2,1.95
			c0.13,0.64,0.32,1.27,0.57,1.869c0.25,0.601,0.56,1.181,0.92,1.73c0.36,0.54,0.78,1.06,1.24,1.52c0.46,0.461,0.97,0.881,1.52,1.24
			c0.54,0.36,1.12,0.67,1.73,0.92c0.6,0.25,1.23,0.44,1.87,0.57s1.3,0.19,1.95,0.19s1.31-0.061,1.95-0.19
			c0.64-0.13,1.27-0.32,1.88-0.57c0.6-0.25,1.18-0.56,1.72-0.92c0.55-0.359,1.06-0.779,1.52-1.24c0.46-0.46,0.88-0.979,1.24-1.52
			c0.36-0.55,0.67-1.13,0.92-1.73c0.25-0.6,0.45-1.229,0.57-1.869c0.13-0.641,0.2-1.301,0.2-1.95
			C379.681,324.8,379.611,324.149,379.481,323.5z"/>
	</g>
</g>
<g>
	<g>
		<path d="M110.05,120c-0.13-0.641-0.32-1.271-0.57-1.87c-0.25-0.61-0.56-1.19-0.92-1.73c-0.37-0.55-0.78-1.06-1.24-1.52
			c-0.47-0.46-0.98-0.88-1.52-1.24c-0.55-0.36-1.13-0.67-1.73-0.92c-0.6-0.25-1.23-0.45-1.87-0.57c-1.29-0.26-2.62-0.26-3.91,0
			c-0.64,0.12-1.27,0.32-1.87,0.57c-0.6,0.25-1.18,0.56-1.73,0.92c-0.54,0.36-1.06,0.78-1.52,1.24c-0.46,0.46-0.88,0.97-1.24,1.52
			c-0.36,0.54-0.67,1.12-0.92,1.73c-0.25,0.6-0.44,1.229-0.57,1.87c-0.13,0.64-0.2,1.3-0.2,1.95c0,0.649,0.07,1.31,0.2,1.96
			c0.13,0.63,0.32,1.26,0.57,1.869c0.25,0.601,0.56,1.181,0.92,1.721c0.36,0.55,0.78,1.06,1.24,1.52c0.47,0.46,0.98,0.88,1.52,1.25
			c0.55,0.36,1.13,0.66,1.73,0.91c0.6,0.25,1.23,0.45,1.87,0.57c0.65,0.13,1.3,0.2,1.95,0.2c0.66,0,1.31-0.07,1.96-0.2
			c0.64-0.12,1.27-0.32,1.87-0.57c0.6-0.25,1.18-0.55,1.73-0.91c0.54-0.37,1.05-0.79,1.52-1.25c0.46-0.46,0.87-0.97,1.24-1.52
			c0.36-0.54,0.67-1.12,0.92-1.721c0.25-0.609,0.44-1.239,0.57-1.869c0.13-0.65,0.2-1.311,0.2-1.96
			C110.251,121.3,110.181,120.639,110.05,120z"/>
	</g>
</g>
<g>
</g>
<g>
</g>
<g>
</g>
<g>
</g>
<g>
</g>
<g>
</g>
<g>
</g>
<g>
</g>
<g>
</g>
<g>
</g>
<g>
</g>
<g>
</g>
<g>
</g>
<g>
</g>
<g>
</g>
</svg>
