<?xml version="1.0" encoding="iso-8859-1"?>
<!-- Generator: Adobe Illustrator 19.0.0, SVG Export Plug-In . SVG Version: 6.00 Build 0)  -->
<svg version="1.1" id="Capa_1" xmlns="http://www.w3.org/2000/svg" xmlns:xlink="http://www.w3.org/1999/xlink" x="0px" y="0px"
	 viewBox="0 0 512 512" style="enable-background:new 0 0 512 512;" xml:space="preserve">
<g>
	<g>
		<path d="M502,345.199h-17.317v-0.484c0-5.522-4.477-10-10-10h-14.518v-48.06c0-5.522-4.477-10-10-10h-0.624v-40.498
			c9.728-9.793,15.749-23.272,15.749-38.133c0-14.861-6.021-28.34-15.749-38.134V90.333c5.261-0.292,9.44-4.638,9.44-9.972V13.955
			c0-5.522-4.477-10-10-10h-78.917c-5.523,0-10,4.478-10,10v66.406c0,5.522,4.477,10,10,10h2.691v69.271h-65.646v-0.629
			c0-5.523-4.477-10-10-10h-53.534v-16.73h15.314c5.523,0,10-4.478,10-10c0-5.522-4.477-10-10-10h-50.628c-5.523,0-10,4.478-10,10
			c0,5.522,4.477,10,10,10h15.315v16.73h-53.534c-5.523,0-10,4.477-10,10v0.629H92.535V90.361h1.066c5.523,0,10-4.478,10-10V13.955
			c0-5.522-4.477-10-10-10H14.684c-5.523,0-10,4.478-10,10v66.406c0,5.522,4.477,10,10,10h1.066v69.53
			C6.022,169.685,0,183.164,0,198.025c0,14.861,6.022,28.34,15.75,38.133v73.9h-0.92c-5.523,0-10,4.478-10,10v127.068
			c0,5.522,4.477,10,10,10h0.92v40.919c0,5.522,4.477,10,10,10h56.785c5.523,0,10-4.478,10-10v-40.919h0.337c5.523,0,10-4.478,10-10
			v-14.518h48.06c5.523,0,10-4.478,10-10v-0.623h176.683v0.771c0,5.523,4.477,10,10,10h127.069c5.523,0,10-4.477,10-10v-0.771H502
			c5.523,0,10-4.478,10-10v-56.786C512,349.677,507.523,345.199,502,345.199z M380.065,23.955h58.917v46.406h-56.226h-2.691V23.955z
			 M429.542,90.361v56.743c-2.092-0.758-4.248-1.38-6.45-1.878c-0.129-0.029-0.257-0.061-0.387-0.089
			c-0.585-0.128-1.175-0.242-1.767-0.351c-0.25-0.046-0.501-0.092-0.752-0.135c-0.52-0.088-1.043-0.169-1.568-0.241
			c-0.349-0.049-0.699-0.092-1.049-0.134c-0.454-0.054-0.909-0.107-1.366-0.15c-0.475-0.045-0.951-0.077-1.427-0.109
			c-0.355-0.024-0.708-0.053-1.065-0.07c-0.852-0.04-1.706-0.065-2.562-0.065s-1.71,0.024-2.562,0.065
			c-0.356,0.017-0.709,0.046-1.063,0.07c-0.477,0.032-0.954,0.064-1.429,0.109c-0.456,0.042-0.909,0.096-1.362,0.149
			c-0.353,0.042-0.705,0.085-1.056,0.135c-0.522,0.072-1.042,0.153-1.56,0.24c-0.256,0.043-0.51,0.09-0.765,0.137
			c-0.587,0.108-1.171,0.221-1.751,0.348c-0.139,0.03-0.277,0.065-0.415,0.096c-2.195,0.497-4.343,1.117-6.429,1.873V90.361H429.542
			z M377.048,196.4c0.011-0.229,0.03-0.457,0.045-0.685c0.02-0.297,0.04-0.595,0.068-0.89c0.028-0.294,0.062-0.587,0.097-0.88
			c0.026-0.217,0.053-0.434,0.083-0.65c0.047-0.336,0.099-0.672,0.156-1.006c0.027-0.157,0.055-0.314,0.084-0.471
			c0.07-0.376,0.143-0.75,0.225-1.123c0.02-0.091,0.042-0.181,0.063-0.271c0.509-2.224,1.242-4.391,2.181-6.468
			c0.072-0.159,0.141-0.319,0.216-0.476c0.12-0.255,0.247-0.506,0.373-0.757c0.121-0.241,0.242-0.482,0.369-0.719
			c0.101-0.19,0.206-0.378,0.31-0.565c0.169-0.304,0.341-0.605,0.52-0.903c0.078-0.13,0.156-0.259,0.236-0.388
			c0.224-0.363,0.453-0.722,0.69-1.075c0.046-0.068,0.091-0.137,0.137-0.205c0.288-0.424,0.585-0.842,0.891-1.253
			c0.003-0.004,0.006-0.008,0.008-0.011c1.967-2.628,4.302-4.963,6.93-6.93c0.003-0.003,0.007-0.005,0.01-0.007
			c0.41-0.307,0.829-0.603,1.254-0.892c0.068-0.046,0.136-0.091,0.205-0.137c0.356-0.235,0.715-0.464,1.078-0.689
			c0.129-0.079,0.257-0.158,0.387-0.235c0.298-0.178,0.6-0.351,0.904-0.52c0.188-0.105,0.376-0.21,0.566-0.31
			c0.238-0.127,0.48-0.248,0.721-0.37c0.25-0.125,0.499-0.252,0.752-0.371c0.161-0.076,0.324-0.146,0.486-0.22
			c2.075-0.938,4.24-1.67,6.463-2.179c0.09-0.02,0.179-0.042,0.269-0.062c0.374-0.082,0.749-0.156,1.126-0.225
			c0.156-0.029,0.311-0.057,0.467-0.084c0.335-0.057,0.671-0.109,1.008-0.157c0.216-0.03,0.434-0.057,0.652-0.083
			c0.291-0.035,0.583-0.069,0.876-0.097c0.298-0.028,0.597-0.049,0.897-0.068c0.227-0.015,0.453-0.034,0.681-0.045
			c0.537-0.025,1.077-0.041,1.62-0.041c0.543,0,1.083,0.016,1.62,0.041c0.227,0.011,0.454,0.03,0.681,0.045
			c0.3,0.02,0.599,0.041,0.897,0.068c0.293,0.028,0.584,0.062,0.875,0.097c0.218,0.026,0.435,0.053,0.652,0.083
			c0.337,0.047,0.673,0.099,1.008,0.156c0.156,0.027,0.312,0.055,0.468,0.084c0.376,0.07,0.752,0.143,1.125,0.225
			c0.09,0.02,0.179,0.042,0.269,0.062c2.221,0.508,4.384,1.239,6.458,2.177c0.164,0.074,0.329,0.146,0.491,0.222
			c0.251,0.118,0.498,0.244,0.746,0.368c0.244,0.123,0.489,0.246,0.73,0.374c0.187,0.099,0.371,0.202,0.556,0.305
			c0.308,0.172,0.614,0.346,0.916,0.527c0.125,0.075,0.249,0.15,0.374,0.227c0.369,0.228,0.734,0.461,1.094,0.702
			c0.062,0.042,0.125,0.083,0.187,0.125c9.043,6.148,14.995,16.518,14.995,28.253c0,11.734-5.951,22.102-14.992,28.25
			c-0.065,0.044-0.13,0.087-0.195,0.13c-0.357,0.239-0.719,0.47-1.085,0.696c-0.127,0.078-0.255,0.156-0.383,0.232
			c-0.299,0.179-0.602,0.352-0.906,0.522c-0.188,0.104-0.376,0.209-0.566,0.31c-0.237,0.126-0.477,0.247-0.716,0.367
			c-0.253,0.127-0.505,0.255-0.761,0.375c-0.155,0.073-0.313,0.141-0.469,0.212c-2.081,0.942-4.252,1.676-6.481,2.185
			c-0.087,0.02-0.174,0.041-0.261,0.06c-0.375,0.083-0.752,0.156-1.13,0.226c-0.154,0.028-0.309,0.057-0.464,0.083
			c-0.336,0.057-0.673,0.109-1.011,0.157c-0.214,0.03-0.43,0.057-0.646,0.082c-0.294,0.036-0.588,0.07-0.884,0.098
			c-0.294,0.027-0.591,0.048-0.887,0.068c-0.229,0.016-0.458,0.035-0.687,0.046c-0.537,0.025-1.077,0.041-1.62,0.041
			c-0.543,0-1.083-0.016-1.62-0.041c-0.229-0.011-0.457-0.03-0.686-0.046c-0.297-0.02-0.594-0.04-0.889-0.068
			c-0.295-0.028-0.588-0.062-0.882-0.098c-0.216-0.026-0.433-0.053-0.648-0.083c-0.337-0.047-0.673-0.099-1.008-0.156
			c-0.156-0.026-0.312-0.055-0.467-0.084c-0.376-0.07-0.752-0.143-1.126-0.225c-0.089-0.02-0.177-0.041-0.267-0.062
			c-2.227-0.509-4.396-1.243-6.476-2.184c-0.157-0.071-0.315-0.139-0.47-0.213c-0.256-0.121-0.509-0.249-0.763-0.376
			c-0.238-0.12-0.477-0.24-0.712-0.365c-0.192-0.102-0.382-0.208-0.572-0.314c-0.301-0.168-0.601-0.339-0.897-0.516
			c-0.132-0.079-0.263-0.158-0.394-0.239c-0.361-0.223-0.718-0.451-1.07-0.686c-0.07-0.047-0.141-0.093-0.21-0.141
			c-0.423-0.288-0.84-0.583-1.249-0.889c-0.005-0.004-0.01-0.007-0.015-0.011c-2.624-1.964-4.957-4.297-6.922-6.92
			c-0.01-0.013-0.02-0.027-0.029-0.04c-0.299-0.401-0.589-0.809-0.87-1.223c-0.052-0.077-0.103-0.154-0.154-0.231
			c-0.23-0.345-0.454-0.694-0.672-1.047c-0.085-0.138-0.169-0.276-0.252-0.415c-0.172-0.288-0.339-0.58-0.503-0.874
			c-0.109-0.196-0.219-0.393-0.324-0.591c-0.122-0.228-0.238-0.459-0.354-0.69c-0.131-0.26-0.263-0.52-0.386-0.783
			c-0.069-0.147-0.134-0.296-0.201-0.444c-0.946-2.087-1.683-4.265-2.194-6.502c-0.02-0.086-0.041-0.171-0.059-0.257
			c-0.083-0.376-0.156-0.753-0.227-1.132c-0.028-0.154-0.057-0.307-0.083-0.462c-0.058-0.337-0.11-0.674-0.157-1.012
			c-0.03-0.214-0.057-0.429-0.082-0.645c-0.036-0.294-0.07-0.589-0.098-0.884c-0.027-0.294-0.048-0.591-0.068-0.887
			c-0.016-0.229-0.035-0.458-0.046-0.687c-0.025-0.537-0.041-1.077-0.041-1.62C377.007,197.477,377.023,196.937,377.048,196.4z
			 M392.756,248.945c2.086,0.756,4.235,1.376,6.431,1.874c0.138,0.031,0.274,0.065,0.412,0.095c0.581,0.127,1.166,0.24,1.754,0.348
			c0.254,0.047,0.508,0.093,0.762,0.136c0.518,0.088,1.039,0.168,1.562,0.24c0.351,0.049,0.702,0.092,1.054,0.134
			c0.454,0.054,0.907,0.107,1.364,0.15c0.475,0.045,0.951,0.077,1.427,0.109c0.355,0.024,0.708,0.053,1.065,0.07
			c0.852,0.04,1.706,0.065,2.562,0.065s1.71-0.024,2.562-0.065c0.357-0.017,0.71-0.046,1.065-0.07
			c0.477-0.032,0.953-0.064,1.427-0.109c0.457-0.043,0.91-0.096,1.364-0.15c0.352-0.042,0.704-0.085,1.055-0.134
			c0.523-0.072,1.043-0.153,1.561-0.24c0.255-0.043,0.509-0.09,0.764-0.137c0.587-0.108,1.172-0.221,1.752-0.348
			c0.139-0.03,0.277-0.065,0.416-0.096c2.195-0.497,4.343-1.117,6.428-1.873v27.71h-36.787V248.945z M307.108,179.633h53.12
			c-0.757,2.088-1.377,4.238-1.875,6.436c-0.031,0.135-0.064,0.269-0.094,0.405c-0.127,0.582-0.241,1.168-0.349,1.757
			c-0.047,0.253-0.093,0.506-0.136,0.76c-0.088,0.519-0.168,1.04-0.241,1.563c-0.049,0.35-0.092,0.701-0.134,1.052
			c-0.054,0.454-0.107,0.908-0.15,1.365c-0.045,0.475-0.077,0.952-0.109,1.429c-0.024,0.355-0.053,0.707-0.07,1.063
			c-0.041,0.852-0.065,1.706-0.065,2.563s0.024,1.71,0.065,2.562c0.017,0.356,0.046,0.709,0.07,1.063
			c0.032,0.477,0.064,0.954,0.109,1.429c0.043,0.457,0.096,0.911,0.15,1.365c0.042,0.351,0.085,0.701,0.134,1.051
			c0.073,0.524,0.153,1.046,0.241,1.565c0.043,0.253,0.089,0.505,0.135,0.757c0.108,0.59,0.222,1.178,0.35,1.762
			c0.029,0.132,0.062,0.264,0.092,0.396c0.498,2.2,1.119,4.353,1.876,6.443h-53.119V179.633z M180.042,226.418v-56.785v-0.629
			h107.069v0.629v56.785v0.629H180.042V226.418z M160.041,179.634v36.784h-54.979c0.753-2.079,1.372-4.22,1.868-6.408
			c0.034-0.148,0.07-0.296,0.103-0.444c0.125-0.572,0.236-1.148,0.343-1.726c0.049-0.265,0.097-0.53,0.142-0.795
			c0.086-0.508,0.165-1.019,0.236-1.532c0.051-0.363,0.096-0.728,0.139-1.092c0.052-0.441,0.104-0.882,0.146-1.327
			c0.047-0.494,0.08-0.99,0.113-1.486c0.022-0.336,0.05-0.67,0.066-1.007c0.041-0.856,0.066-1.714,0.066-2.574
			s-0.025-1.718-0.066-2.574c-0.016-0.337-0.044-0.67-0.066-1.005c-0.033-0.497-0.067-0.995-0.114-1.49
			c-0.041-0.443-0.093-0.883-0.145-1.322c-0.044-0.367-0.089-0.733-0.14-1.099c-0.071-0.511-0.149-1.019-0.235-1.525
			c-0.046-0.269-0.094-0.537-0.144-0.805c-0.106-0.575-0.217-1.148-0.341-1.717c-0.034-0.154-0.071-0.306-0.106-0.459
			c-0.496-2.184-1.114-4.322-1.866-6.397H160.041z M24.684,23.955h58.917v46.406h-1.066H25.75h-1.066V23.955z M72.535,90.361v56.743
			c-2.085-0.756-4.234-1.376-6.429-1.873c-0.139-0.032-0.276-0.066-0.415-0.096c-0.58-0.127-1.165-0.24-1.751-0.348
			c-0.255-0.047-0.509-0.094-0.765-0.137c-0.517-0.087-1.037-0.168-1.56-0.24c-0.351-0.049-0.704-0.092-1.056-0.135
			c-0.453-0.054-0.906-0.107-1.362-0.149c-0.475-0.045-0.952-0.077-1.429-0.109c-0.354-0.024-0.707-0.053-1.063-0.07
			c-0.852-0.04-1.706-0.065-2.562-0.065c-0.856,0-1.71,0.024-2.562,0.065c-0.356,0.017-0.709,0.046-1.064,0.07
			c-0.477,0.032-0.954,0.064-1.429,0.109c-0.457,0.042-0.91,0.096-1.363,0.15c-0.352,0.042-0.704,0.085-1.055,0.135
			c-0.523,0.073-1.043,0.153-1.561,0.24c-0.255,0.043-0.508,0.09-0.762,0.137c-0.588,0.108-1.173,0.222-1.754,0.348
			c-0.137,0.03-0.273,0.064-0.411,0.095c-2.196,0.497-4.346,1.118-6.432,1.874V90.361H72.535z M33.722,170.68
			c0.006-0.005,0.013-0.009,0.019-0.014c0.408-0.305,0.823-0.599,1.245-0.886c0.07-0.048,0.141-0.095,0.212-0.142
			c0.352-0.236,0.709-0.464,1.07-0.687c0.13-0.08,0.26-0.159,0.391-0.238c0.296-0.177,0.597-0.349,0.899-0.517
			c0.19-0.105,0.379-0.211,0.57-0.313c0.236-0.126,0.476-0.247,0.716-0.367c0.251-0.126,0.502-0.253,0.757-0.373
			c0.159-0.075,0.321-0.145,0.481-0.218c2.076-0.939,4.242-1.672,6.466-2.18c0.089-0.02,0.178-0.042,0.268-0.062
			c0.374-0.082,0.75-0.156,1.126-0.225c0.155-0.029,0.311-0.057,0.467-0.083c0.335-0.057,0.671-0.109,1.008-0.157
			c0.216-0.03,0.434-0.057,0.652-0.083c0.291-0.035,0.583-0.069,0.876-0.097c0.298-0.028,0.597-0.049,0.897-0.068
			c0.227-0.015,0.453-0.034,0.681-0.045c0.537-0.025,1.077-0.041,1.62-0.041c0.543,0,1.083,0.016,1.62,0.041
			c0.228,0.011,0.454,0.03,0.681,0.045c0.3,0.02,0.599,0.041,0.897,0.068c0.293,0.028,0.584,0.062,0.876,0.097
			c0.218,0.026,0.435,0.053,0.652,0.083c0.337,0.047,0.673,0.099,1.008,0.157c0.156,0.026,0.312,0.055,0.467,0.084
			c0.376,0.07,0.752,0.143,1.125,0.225c0.09,0.02,0.179,0.042,0.269,0.062c2.223,0.508,4.387,1.24,6.462,2.179
			c0.162,0.073,0.325,0.144,0.486,0.22c0.253,0.119,0.502,0.246,0.752,0.371c0.241,0.122,0.483,0.243,0.721,0.37
			c0.19,0.101,0.378,0.206,0.566,0.31c0.304,0.17,0.606,0.342,0.904,0.52c0.129,0.077,0.258,0.156,0.387,0.235
			c0.363,0.224,0.723,0.454,1.077,0.691c0.068,0.046,0.137,0.091,0.205,0.137c0.424,0.289,0.843,0.585,1.254,0.892
			c0.003,0.003,0.007,0.005,0.01,0.007c2.628,1.967,4.964,4.303,6.931,6.932c0.002,0.002,0.003,0.004,0.004,0.006
			c0.308,0.412,0.606,0.833,0.896,1.26c0.044,0.065,0.088,0.131,0.132,0.197c0.239,0.357,0.471,0.719,0.697,1.086
			c0.077,0.125,0.153,0.251,0.229,0.377c0.181,0.303,0.356,0.609,0.529,0.918c0.102,0.183,0.204,0.365,0.302,0.55
			c0.13,0.244,0.255,0.492,0.379,0.739c0.123,0.245,0.246,0.489,0.363,0.736c0.079,0.168,0.153,0.338,0.23,0.507
			c0.931,2.061,1.658,4.211,2.164,6.418c0.024,0.104,0.049,0.206,0.072,0.31c0.08,0.362,0.151,0.726,0.218,1.091
			c0.031,0.169,0.062,0.338,0.091,0.507c0.055,0.323,0.105,0.648,0.151,0.973c0.032,0.23,0.061,0.461,0.088,0.692
			c0.034,0.28,0.066,0.56,0.093,0.841c0.03,0.315,0.052,0.633,0.072,0.95c0.014,0.209,0.032,0.417,0.042,0.626
			c0.025,0.541,0.041,1.085,0.041,1.632c0,0.547-0.016,1.091-0.041,1.632c-0.01,0.209-0.028,0.417-0.042,0.626
			c-0.021,0.318-0.043,0.635-0.072,0.95c-0.027,0.281-0.059,0.561-0.093,0.841c-0.027,0.231-0.056,0.462-0.088,0.691
			c-0.046,0.326-0.096,0.65-0.151,0.974c-0.029,0.169-0.059,0.337-0.09,0.505c-0.068,0.366-0.139,0.731-0.219,1.094
			c-0.022,0.102-0.047,0.204-0.071,0.306c-0.508,2.213-1.237,4.368-2.172,6.435c-0.074,0.162-0.144,0.326-0.221,0.487
			c-0.119,0.253-0.246,0.503-0.371,0.753c-0.121,0.241-0.242,0.482-0.369,0.72c-0.102,0.191-0.207,0.38-0.312,0.569
			c-0.168,0.301-0.338,0.6-0.515,0.894c-0.08,0.134-0.161,0.267-0.243,0.4c-0.221,0.358-0.447,0.712-0.681,1.061
			c-0.049,0.073-0.097,0.147-0.147,0.219c-0.284,0.417-0.575,0.828-0.876,1.232c-0.008,0.011-0.016,0.023-0.025,0.034
			c-1.965,2.624-4.299,4.957-6.923,6.922c-0.005,0.004-0.01,0.007-0.015,0.011c-0.408,0.305-0.825,0.6-1.247,0.888
			c-0.07,0.048-0.141,0.094-0.212,0.141c-0.354,0.238-0.711,0.466-1.071,0.688c-0.131,0.081-0.263,0.161-0.395,0.24
			c-0.295,0.176-0.593,0.347-0.894,0.515c-0.191,0.106-0.382,0.213-0.575,0.316c-0.234,0.125-0.471,0.243-0.708,0.363
			c-0.255,0.128-0.509,0.257-0.767,0.378c-0.153,0.072-0.309,0.14-0.464,0.21c-2.082,0.942-4.254,1.677-6.484,2.187
			c-0.087,0.02-0.174,0.041-0.262,0.06c-0.375,0.083-0.751,0.156-1.129,0.226c-0.155,0.028-0.309,0.057-0.465,0.083
			c-0.336,0.057-0.673,0.109-1.011,0.157c-0.214,0.03-0.43,0.057-0.646,0.082c-0.294,0.036-0.589,0.07-0.884,0.098
			c-0.294,0.027-0.591,0.048-0.887,0.068c-0.229,0.016-0.458,0.035-0.687,0.046c-0.537,0.025-1.077,0.041-1.62,0.041
			c-0.543,0-1.083-0.016-1.62-0.041c-0.23-0.011-0.458-0.03-0.687-0.046c-0.297-0.02-0.593-0.04-0.887-0.068
			c-0.295-0.028-0.59-0.062-0.884-0.098c-0.216-0.026-0.431-0.052-0.646-0.082c-0.338-0.047-0.675-0.1-1.011-0.157
			c-0.155-0.026-0.31-0.055-0.464-0.083c-0.378-0.07-0.755-0.144-1.13-0.226c-0.087-0.019-0.174-0.04-0.261-0.06
			c-2.232-0.51-4.405-1.245-6.488-2.189c-0.153-0.07-0.307-0.136-0.459-0.208c-0.26-0.122-0.515-0.252-0.772-0.381
			c-0.235-0.118-0.471-0.237-0.702-0.36c-0.195-0.103-0.387-0.211-0.58-0.318c-0.299-0.167-0.596-0.337-0.889-0.512
			c-0.134-0.08-0.267-0.161-0.4-0.242c-0.358-0.221-0.713-0.448-1.062-0.681c-0.073-0.049-0.146-0.097-0.219-0.146
			c-0.419-0.285-0.833-0.578-1.238-0.881c-0.008-0.006-0.016-0.012-0.024-0.018C25.397,219.138,20,209.2,20,198.025
			C20,186.849,25.397,176.911,33.722,170.68z M72.536,248.945v61.113H35.75v-61.113c2.087,0.756,4.237,1.377,6.434,1.874
			c0.136,0.031,0.271,0.064,0.408,0.094c0.582,0.127,1.168,0.241,1.757,0.349c0.253,0.047,0.506,0.093,0.76,0.136
			c0.519,0.087,1.04,0.168,1.563,0.24c0.35,0.049,0.701,0.092,1.053,0.134c0.454,0.054,0.908,0.107,1.365,0.15
			c0.474,0.045,0.951,0.077,1.427,0.109c0.355,0.024,0.708,0.053,1.065,0.07c0.852,0.04,1.706,0.065,2.562,0.065
			c0.856,0,1.71-0.024,2.562-0.065c0.357-0.017,0.71-0.046,1.065-0.07c0.476-0.032,0.953-0.064,1.427-0.109
			c0.457-0.043,0.91-0.096,1.364-0.15c0.352-0.042,0.703-0.085,1.054-0.134c0.523-0.073,1.043-0.153,1.562-0.24
			c0.254-0.043,0.508-0.09,0.762-0.136c0.588-0.108,1.173-0.221,1.754-0.348c0.138-0.03,0.275-0.064,0.412-0.095
			C68.301,250.322,70.45,249.701,72.536,248.945z M72.535,488.046H35.75v-30.919h36.786V488.046z M140.932,355.198v56.786v0.624
			h-48.06c-5.523,0-10,4.477-10,10v14.518h-0.337H25.75h-0.92V330.058h0.92h56.785h0.337v14.518c0,5.523,4.477,10,10,10h48.06
			V355.198z M337.615,401.986H160.932v-8.393h109.131c5.523,0,10-4.478,10-10c0-5.523-4.477-10-10-10H160.932v-8.394h176.683
			V401.986z M337.615,344.714v0.484H160.932v-0.623c0-5.522-4.477-10-10-10h-48.06v-14.518c0-5.522-4.477-10-10-10h-0.337v-73.64
			h67.507v0.629c0,5.523,4.477,10,10,10h127.069c5.523,0,10-4.477,10-10v-0.629h65.646v40.237h-0.624v0c-5.523,0-10,4.478-10,10
			v48.06h-14.518C342.092,334.715,337.615,339.193,337.615,344.714z M464.685,355.2v56.786v0.771h-0.001H357.615v-0.771V355.2
			v-0.484h14.518c5.523,0,10-4.477,10-10v-48.06h0.624h56.786h0.624v48.06c0,5.523,4.477,10,10,10h14.518V355.2z M492,401.986
			h-7.317v-36.787H492V401.986z"/>
	</g>
</g>
<g>
	<g>
		<path d="M318.249,381.638c-0.12-0.639-0.32-1.269-0.57-1.87c-0.25-0.6-0.56-1.189-0.92-1.729c-0.36-0.55-0.78-1.061-1.24-1.521
			c-0.46-0.46-0.97-0.88-1.52-1.239c-0.54-0.36-1.12-0.671-1.73-0.921c-0.6-0.25-1.23-0.44-1.87-0.569c-1.29-0.26-2.62-0.26-3.91,0
			c-0.63,0.13-1.26,0.319-1.87,0.569c-0.6,0.25-1.18,0.56-1.72,0.921c-0.55,0.359-1.06,0.779-1.52,1.239
			c-0.46,0.46-0.88,0.971-1.25,1.521c-0.36,0.54-0.66,1.13-0.91,1.729c-0.25,0.601-0.45,1.23-0.57,1.87
			c-0.13,0.641-0.2,1.3-0.2,1.95c0,2.64,1.07,5.21,2.93,7.07c0.46,0.47,0.97,0.88,1.52,1.25c0.54,0.359,1.12,0.67,1.72,0.92
			c0.61,0.25,1.24,0.439,1.88,0.569c0.64,0.131,1.3,0.19,1.95,0.19s1.31-0.06,1.95-0.19c0.64-0.13,1.27-0.319,1.87-0.569
			c0.61-0.25,1.19-0.561,1.73-0.92c0.55-0.37,1.06-0.78,1.52-1.25c1.86-1.86,2.93-4.431,2.93-7.07
			C318.449,382.938,318.379,382.278,318.249,381.638z"/>
	</g>
</g>
<g>
</g>
<g>
</g>
<g>
</g>
<g>
</g>
<g>
</g>
<g>
</g>
<g>
</g>
<g>
</g>
<g>
</g>
<g>
</g>
<g>
</g>
<g>
</g>
<g>
</g>
<g>
</g>
<g>
</g>
</svg>
