<?xml version="1.0" encoding="iso-8859-1"?>
<!-- Generator: Adobe Illustrator 19.0.0, SVG Export Plug-In . SVG Version: 6.00 Build 0)  -->
<svg version="1.1" id="Capa_1" xmlns="http://www.w3.org/2000/svg" xmlns:xlink="http://www.w3.org/1999/xlink" x="0px" y="0px"
	 viewBox="0 0 512 512" style="enable-background:new 0 0 512 512;" xml:space="preserve">
<g>
	<g>
		<path d="M420.434,203.698h47c5.523,0,10-4.477,10-10v-6.751H502c5.523,0,10-4.477,10-10v-52.498c0-5.523-4.477-10-10-10h-24.566
			v-6.751c0-5.523-4.477-10-10-10h-47c-5.523,0-10,4.477-10,10v6.751h-14.027V52.804c0-3.699-2.042-7.095-5.308-8.831l-47.051-25
			c-2.935-1.558-6.45-1.558-9.385,0L292.305,41.48l-42.358-22.507c-2.935-1.558-6.45-1.558-9.385,0L198.204,41.48l-42.358-22.507
			c-2.935-1.558-6.45-1.558-9.385,0L104.102,41.48L61.743,18.973c-2.935-1.558-6.45-1.558-9.385,0l-47.051,25
			C2.042,45.709,0,49.106,0,52.804v406.392c0,3.699,2.042,7.095,5.308,8.831l47.051,25c1.467,0.779,3.08,1.169,4.692,1.169
			s3.225-0.39,4.692-1.169l42.359-22.507l42.359,22.507c1.467,0.779,3.08,1.169,4.692,1.169c1.613,0,3.225-0.39,4.692-1.169
			l42.358-22.507l42.358,22.507c1.467,0.779,3.08,1.169,4.692,1.169c1.613,0,3.225-0.39,4.692-1.169l42.358-22.507l42.358,22.507
			c1.467,0.779,3.08,1.169,4.692,1.169c1.613,0,3.225-0.39,4.692-1.169l47.051-25c3.266-1.736,5.308-5.132,5.308-8.831v-61.645
			h14.027v6.751c0,5.523,4.477,10,10,10h47c5.523,0,10-4.477,10-10v-6.751H502c5.523,0,10-4.477,10-10v-52.498
			c0-5.523-4.477-10-10-10h-24.566v-6.751c0-5.523-4.477-10-10-10h-47c-5.523,0-10,4.477-10,10v6.751h-14.027V186.947h14.027v6.751
			C410.434,199.221,414.911,203.698,420.434,203.698z M477.434,134.449H492v32.498h-14.566V134.449z M430.434,117.698h27v66h-27
			V117.698z M94.102,453.185l-37.051,19.687L20,453.185V58.815l37.051-19.687l37.051,19.687V453.185z M188.204,453.185
			l-37.051,19.687l-37.051-19.687V58.815l37.051-19.687l37.051,19.687V453.185z M282.305,453.185l-37.051,19.687l-37.051-19.687
			V58.815l37.051-19.687l37.051,19.687V453.185z M376.407,453.185l-37.051,19.687l-37.051-19.687V58.815l37.051-19.687
			l37.051,19.687V453.185z M477.434,345.053H492v32.498h-14.566V345.053z M430.434,328.302h27v66h-27V328.302z M410.434,345.053
			v32.498h-14.027v-32.498H410.434z M396.407,166.947v-32.498h14.027v32.498H396.407z"/>
	</g>
</g>
<g>
	<g>
		<path d="M160.96,72.38c-0.13-0.64-0.32-1.27-0.57-1.87c-0.25-0.6-0.56-1.19-0.92-1.73c-0.37-0.55-0.78-1.06-1.25-1.52
			c-0.46-0.46-0.97-0.88-1.52-1.24c-0.54-0.36-1.12-0.67-1.72-0.92c-0.61-0.25-1.24-0.44-1.87-0.57c-1.29-0.26-2.62-0.26-3.91,0
			c-0.64,0.13-1.27,0.32-1.87,0.57c-0.61,0.25-1.19,0.56-1.73,0.92c-0.55,0.36-1.06,0.78-1.52,1.24c-0.46,0.46-0.88,0.97-1.24,1.52
			c-0.36,0.54-0.67,1.13-0.92,1.73c-0.25,0.6-0.44,1.23-0.57,1.87c-0.13,0.65-0.2,1.3-0.2,1.95c0,2.64,1.07,5.21,2.93,7.07
			c0.46,0.47,0.97,0.88,1.52,1.25c0.54,0.36,1.12,0.67,1.73,0.92c0.6,0.25,1.23,0.44,1.87,0.57s1.3,0.19,1.95,0.19
			c0.65,0,1.31-0.06,1.96-0.19c0.63-0.13,1.26-0.32,1.87-0.57c0.6-0.25,1.18-0.56,1.72-0.92c0.55-0.37,1.06-0.78,1.52-1.25
			c1.86-1.86,2.93-4.43,2.93-7.07C161.15,73.68,161.09,73.03,160.96,72.38z"/>
	</g>
</g>
<g>
	<g>
		<path d="M151.153,103c-5.523,0-10,4.477-10,10v324.667c0,5.523,4.477,10,10,10s10-4.477,10-10V113
			C161.153,107.477,156.676,103,151.153,103z"/>
	</g>
</g>
<g>
	<g>
		<path d="M66.85,435.71c-0.12-0.64-0.32-1.27-0.57-1.87c-0.25-0.6-0.55-1.18-0.92-1.72c-0.36-0.55-0.78-1.06-1.24-1.52
			c-2.32-2.33-5.77-3.39-9.02-2.74c-0.64,0.13-1.27,0.32-1.87,0.57c-0.61,0.25-1.19,0.56-1.73,0.92c-0.55,0.37-1.06,0.78-1.52,1.25
			c-0.46,0.46-0.88,0.97-1.24,1.52c-0.36,0.54-0.67,1.12-0.92,1.72c-0.25,0.6-0.45,1.23-0.57,1.87c-0.13,0.65-0.2,1.3-0.2,1.96
			c0,0.65,0.07,1.31,0.2,1.95c0.12,0.64,0.32,1.27,0.57,1.87c0.25,0.61,0.56,1.19,0.92,1.73c0.36,0.55,0.78,1.06,1.24,1.52
			c0.46,0.46,0.97,0.88,1.52,1.24c0.54,0.36,1.12,0.67,1.73,0.92c0.6,0.25,1.23,0.44,1.87,0.57c0.64,0.13,1.3,0.2,1.95,0.2
			c2.63,0,5.21-1.07,7.07-2.93c0.461-0.46,0.88-0.97,1.24-1.52c0.37-0.54,0.67-1.12,0.92-1.73c0.25-0.6,0.45-1.23,0.57-1.87
			c0.13-0.64,0.2-1.3,0.2-1.95C67.05,437.01,66.98,436.36,66.85,435.71z"/>
	</g>
</g>
<g>
	<g>
		<path d="M57.051,64.334c-5.523,0-10,4.477-10,10V399c0,5.523,4.477,10,10,10c5.523,0,10-4.477,10-10V74.334
			C67.051,68.811,62.574,64.334,57.051,64.334z"/>
	</g>
</g>
<g>
	<g>
		<path d="M349.16,72.38c-0.13-0.64-0.32-1.27-0.57-1.87c-0.25-0.6-0.56-1.19-0.92-1.73c-0.36-0.55-0.78-1.06-1.24-1.52
			c-0.46-0.46-0.98-0.88-1.52-1.24c-0.55-0.36-1.13-0.67-1.73-0.92c-0.6-0.25-1.23-0.44-1.87-0.57c-1.29-0.26-2.62-0.26-3.91,0
			c-0.64,0.13-1.27,0.32-1.87,0.57c-0.6,0.25-1.18,0.56-1.73,0.92c-0.54,0.36-1.05,0.78-1.52,1.24c-0.46,0.46-0.87,0.97-1.24,1.52
			c-0.36,0.54-0.67,1.13-0.92,1.73c-0.25,0.6-0.44,1.23-0.57,1.87s-0.19,1.3-0.19,1.95c0,0.66,0.06,1.309,0.19,1.96
			c0.13,0.64,0.32,1.26,0.57,1.87c0.25,0.6,0.56,1.18,0.92,1.72c0.37,0.55,0.78,1.06,1.24,1.53c1.87,1.86,4.44,2.92,7.08,2.92
			c0.65,0,1.3-0.06,1.95-0.19c0.64-0.13,1.27-0.32,1.87-0.57c0.6-0.25,1.18-0.56,1.73-0.92c0.54-0.37,1.06-0.78,1.52-1.24
			c0.46-0.47,0.88-0.98,1.24-1.53c0.36-0.54,0.67-1.12,0.92-1.72c0.25-0.61,0.44-1.23,0.57-1.87c0.13-0.65,0.2-1.3,0.2-1.96
			C349.36,73.68,349.29,73.02,349.16,72.38z"/>
	</g>
</g>
<g>
	<g>
		<path d="M339.356,103c-5.523,0-10,4.477-10,10v324.667c0,5.523,4.477,10,10,10s10-4.477,10-10V113
			C349.356,107.477,344.879,103,339.356,103z"/>
	</g>
</g>
<g>
	<g>
		<path d="M255.06,435.71c-0.13-0.64-0.32-1.26-0.57-1.87c-0.25-0.6-0.56-1.18-0.92-1.72c-0.37-0.55-0.78-1.06-1.24-1.52
			c-0.47-0.46-0.98-0.88-1.52-1.25c-0.55-0.36-1.13-0.67-1.73-0.92c-0.6-0.25-1.23-0.44-1.87-0.57c-1.29-0.26-2.62-0.26-3.91,0
			c-0.64,0.13-1.27,0.32-1.87,0.57c-0.6,0.25-1.18,0.56-1.73,0.92c-0.54,0.37-1.06,0.79-1.52,1.25c-0.46,0.46-0.88,0.97-1.24,1.52
			c-0.36,0.54-0.67,1.12-0.92,1.72c-0.25,0.61-0.44,1.23-0.57,1.87c-0.13,0.65-0.2,1.3-0.2,1.96c0,0.65,0.07,1.31,0.2,1.95
			s0.32,1.27,0.57,1.87c0.25,0.61,0.56,1.19,0.92,1.73c0.36,0.55,0.78,1.06,1.24,1.52c0.46,0.46,0.98,0.88,1.52,1.24
			c0.55,0.36,1.13,0.67,1.73,0.92c0.6,0.25,1.23,0.44,1.87,0.57c0.65,0.13,1.3,0.2,1.95,0.2c0.66,0,1.31-0.07,1.96-0.2
			c0.64-0.13,1.27-0.32,1.87-0.57s1.18-0.56,1.73-0.92c0.539-0.36,1.05-0.78,1.52-1.24c0.46-0.46,0.87-0.97,1.24-1.52
			c0.36-0.54,0.67-1.12,0.92-1.73c0.25-0.6,0.44-1.23,0.57-1.87c0.13-0.64,0.2-1.3,0.2-1.95
			C255.26,437.01,255.19,436.36,255.06,435.71z"/>
	</g>
</g>
<g>
	<g>
		<path d="M245.254,64.334c-5.523,0-10,4.477-10,10V399c0,5.523,4.477,10,10,10c5.523,0,10-4.477,10-10V74.334
			C255.254,68.811,250.777,64.334,245.254,64.334z"/>
	</g>
</g>
<g>
</g>
<g>
</g>
<g>
</g>
<g>
</g>
<g>
</g>
<g>
</g>
<g>
</g>
<g>
</g>
<g>
</g>
<g>
</g>
<g>
</g>
<g>
</g>
<g>
</g>
<g>
</g>
<g>
</g>
</svg>
