<?xml version="1.0" encoding="iso-8859-1"?>
<!-- Generator: Adobe Illustrator 19.0.0, SVG Export Plug-In . SVG Version: 6.00 Build 0)  -->
<svg version="1.1" id="Capa_1" xmlns="http://www.w3.org/2000/svg" xmlns:xlink="http://www.w3.org/1999/xlink" x="0px" y="0px"
	 viewBox="0 0 512 512" style="enable-background:new 0 0 512 512;" xml:space="preserve">
<g>
	<g>
		<path d="M450.836,0H61.164c-5.522,0-10,4.477-10,10v492c0,5.523,4.478,10,10,10h389.672c5.522,0,10-4.477,10-10V10
			C460.836,4.477,456.358,0,450.836,0z M71.164,20h369.672v24.75H329.323c-5.522,0-10,4.477-10,10V57H192.677v-2.25
			c0-5.523-4.478-10-10-10H71.164V20z M339.323,253.75h2.25c6.755,0,12.25,5.495,12.25,12.25s-5.495,12.25-12.25,12.25h-2.25V253.75
			z M246,102.695c-25.049,0.652-45.23,21.216-45.23,46.421v24.265h-8.094V77H246V102.695z M247.222,122.664h17.557
			c14.585,0,26.451,11.866,26.451,26.452v24.265h-70.46v-24.265C220.77,134.53,232.637,122.664,247.222,122.664z M192.677,193.38
			h126.646V435H192.677V193.38z M311.229,173.38v-24.265c0-25.204-20.18-45.769-45.229-46.421V77h53.323v96.38H311.229z
			 M71.163,64.75h101.514v169h-2.25c-17.783,0-32.25,14.467-32.25,32.25s14.467,32.25,32.25,32.25h2.25v149h-70.331V147.383
			c0-5.523-4.478-10-10-10c-5.523,0-10,4.477-10,10V447.25H71.163V64.75z M172.677,253.75v24.5h-2.25
			c-6.755,0-12.25-5.495-12.25-12.25s5.495-12.25,12.25-12.25H172.677z M440.836,492H71.164v-24.75h111.513c5.522,0,10-4.477,10-10
			V455h126.646v2.25c0,5.523,4.478,10,10,10h111.513V492z M440.837,447.25h-11.183V147.383c0-5.523-4.477-10-10-10
			c-5.522,0-10,4.477-10,10V447.25h-70.331v-149h2.25c17.783,0,32.25-14.467,32.25-32.25c0-17.783-14.467-32.25-32.25-32.25h-2.25
			v-169h101.514V447.25z"/>
	</g>
</g>
<g>
	<g>
		<path d="M102.148,106.76c-0.128-0.63-0.318-1.26-0.568-1.87c-0.25-0.6-0.561-1.18-0.92-1.72c-0.36-0.55-0.78-1.06-1.24-1.52
			c-0.46-0.46-0.98-0.88-1.521-1.25c-0.54-0.36-1.13-0.67-1.729-0.92c-0.601-0.25-1.23-0.44-1.87-0.57c-1.29-0.26-2.62-0.26-3.91,0
			c-0.64,0.13-1.27,0.32-1.87,0.57c-0.6,0.25-1.18,0.56-1.729,0.92c-0.54,0.37-1.061,0.79-1.521,1.25
			c-1.859,1.86-2.92,4.43-2.92,7.07c0,0.65,0.061,1.31,0.19,1.95c0.13,0.64,0.319,1.27,0.569,1.87c0.25,0.61,0.561,1.19,0.921,1.73
			c0.369,0.55,0.779,1.06,1.239,1.52c0.46,0.46,0.98,0.88,1.521,1.24c0.55,0.36,1.13,0.67,1.729,0.92
			c0.601,0.25,1.23,0.44,1.87,0.57c0.65,0.13,1.3,0.2,1.96,0.2c0.65,0,1.311-0.07,1.95-0.2c0.64-0.13,1.27-0.32,1.87-0.57
			c0.6-0.25,1.189-0.56,1.729-0.92c0.54-0.36,1.061-0.78,1.521-1.24c0.46-0.46,0.88-0.97,1.24-1.52c0.359-0.54,0.67-1.12,0.92-1.73
			c0.25-0.6,0.439-1.23,0.569-1.87c0.131-0.64,0.19-1.3,0.19-1.95C102.338,108.06,102.278,107.41,102.148,106.76z"/>
	</g>
</g>
<g>
	<g>
		<path d="M426.729,101.65c-0.47-0.46-0.979-0.88-1.52-1.25c-0.55-0.36-1.13-0.67-1.73-0.92c-0.6-0.25-1.229-0.44-1.87-0.57
			c-1.29-0.26-2.619-0.26-3.909,0c-0.641,0.13-1.271,0.32-1.87,0.57c-0.601,0.25-1.181,0.56-1.73,0.92
			c-0.54,0.37-1.05,0.79-1.52,1.25c-1.86,1.86-2.931,4.43-2.931,7.07c0,2.63,1.07,5.21,2.931,7.07c0.47,0.46,0.979,0.88,1.52,1.24
			c0.55,0.36,1.13,0.67,1.73,0.92c0.6,0.25,1.229,0.44,1.87,0.57c0.649,0.13,1.3,0.2,1.949,0.2c0.66,0,1.311-0.07,1.96-0.2
			c0.641-0.13,1.271-0.32,1.87-0.57c0.601-0.25,1.181-0.56,1.73-0.92c0.54-0.36,1.05-0.78,1.52-1.24
			c1.86-1.86,2.931-4.44,2.931-7.07C429.66,106.08,428.59,103.51,426.729,101.65z"/>
	</g>
</g>
<g>
	<g>
		<path d="M263.195,205.01c-1.884-1.952-4.481-3.055-7.194-3.055s-5.311,1.102-7.194,3.055
			c-5.959,6.173-19.818,21.839-19.818,33.965c0,14.895,12.118,27.012,27.013,27.012s27.011-12.118,27.011-27.012
			C283.013,226.849,269.154,211.183,263.195,205.01z M256,245.987c-3.838,0-6.966-3.099-7.012-6.926
			c0.269-2.096,3.135-6.781,7.012-11.8c3.878,5.021,6.743,9.704,7.012,11.8C262.966,242.888,259.838,245.987,256,245.987z"/>
	</g>
</g>
<g>
	<g>
		<path d="M232.816,269.353c-1.885-1.951-4.483-3.054-7.196-3.054c-2.714,0-5.311,1.103-7.195,3.055
			c-5.958,6.173-19.816,21.839-19.816,33.964c0,14.895,12.117,27.013,27.012,27.013c14.895,0,27.013-12.118,27.013-27.013
			C252.634,291.193,238.775,275.526,232.816,269.353z M225.62,310.332c-3.838,0-6.965-3.1-7.011-6.927
			c0.268-2.095,3.132-6.776,7.006-11.792c3.856,5.008,6.751,9.728,7.017,11.792C232.586,307.232,229.458,310.332,225.62,310.332z"/>
	</g>
</g>
<g>
	<g>
		<path d="M293.577,269.355c-1.887-1.953-4.483-3.056-7.197-3.056c-2.713,0-5.311,1.103-7.194,3.055
			c-5.959,6.173-19.818,21.839-19.818,33.965c0,14.895,12.118,27.013,27.013,27.013c14.895,0,27.012-12.118,27.012-27.013
			C313.393,291.194,299.535,275.528,293.577,269.355z M286.38,310.332c-3.838,0-6.966-3.1-7.012-6.927
			c0.268-2.095,3.132-6.776,7.006-11.792c3.857,5.008,6.751,9.728,7.017,11.792C293.345,307.232,290.218,310.332,286.38,310.332z"/>
	</g>
</g>
<g>
</g>
<g>
</g>
<g>
</g>
<g>
</g>
<g>
</g>
<g>
</g>
<g>
</g>
<g>
</g>
<g>
</g>
<g>
</g>
<g>
</g>
<g>
</g>
<g>
</g>
<g>
</g>
<g>
</g>
</svg>
