<?xml version="1.0" encoding="iso-8859-1"?>
<!-- Generator: Adobe Illustrator 19.0.0, SVG Export Plug-In . SVG Version: 6.00 Build 0)  -->
<svg version="1.1" id="Capa_1" xmlns="http://www.w3.org/2000/svg" xmlns:xlink="http://www.w3.org/1999/xlink" x="0px" y="0px"
	 viewBox="0 0 511.997 511.997" style="enable-background:new 0 0 511.997 511.997;" xml:space="preserve">
<g>
	<g>
		<path d="M383.046,458.849V424.61c0-45.19-36.071-82.089-80.93-83.478v-29.528c0-5.523-4.477-10-10-10h-6.964V186.293
			c4.471-0.938,7.853-4.861,7.937-9.607l2.379-134.984c0.195-11.081-3.975-21.537-11.742-29.442C275.958,4.353,265.577,0,254.493,0
			s-21.464,4.353-29.231,12.259c-7.767,7.905-11.938,18.361-11.742,29.442l2.379,134.984c0.084,4.746,3.465,8.669,7.936,9.607
			v115.312h-10.977c-5.523,0-10,4.477-10,10v29.876c-42.184,4.18-75.245,39.864-75.245,83.129v34.611
			c-11.025,3.392-19.062,13.672-19.062,25.794c0,14.879,12.104,26.983,26.983,26.983h240.928c14.879,0,26.983-12.104,26.983-26.983
			C403.446,472.409,394.753,461.796,383.046,458.849z M239.529,26.276c3.977-4.047,9.292-6.276,14.965-6.276
			c5.674,0,10.989,2.229,14.965,6.276c3.977,4.047,6.111,9.4,6.011,15.073l-2.206,125.16h-37.542l-2.206-125.16
			C233.418,35.676,235.551,30.323,239.529,26.276z M265.152,186.509v115.096h-21.316V186.509H265.152z M222.858,321.605h59.258
			v19.462h-59.258V321.605z M147.613,442.102h147.9c5.523,0,10-4.477,10-10s-4.477-10-10-10H147.676
			c1.324-33.878,29.284-61.035,63.481-61.035h88.344c35.038,0,63.544,28.506,63.544,63.544v33.423H147.613V442.102z M376.462,492
			H135.535c-3.851,0-6.983-3.133-6.983-6.983c0-3.851,3.133-6.983,6.983-6.983h240.928c3.851,0,6.983,3.132,6.983,6.983
			C383.446,488.867,380.313,492,376.462,492z"/>
	</g>
</g>
<g>
	<g>
		<path d="M343.989,430.15c-0.13-0.64-0.32-1.27-0.57-1.87c-0.25-0.61-0.56-1.19-0.92-1.73c-0.37-0.55-0.79-1.06-1.25-1.52
			c-0.46-0.46-0.97-0.88-1.52-1.24c-0.54-0.36-1.12-0.67-1.72-0.92c-0.61-0.25-1.24-0.44-1.87-0.57c-1.29-0.26-2.62-0.26-3.91,0
			c-0.64,0.13-1.27,0.32-1.87,0.57c-0.61,0.25-1.19,0.56-1.73,0.92c-0.55,0.36-1.06,0.78-1.52,1.24c-0.46,0.46-0.88,0.97-1.24,1.52
			c-0.36,0.54-0.67,1.12-0.92,1.73c-0.25,0.6-0.44,1.23-0.57,1.87c-0.13,0.64-0.2,1.3-0.2,1.95s0.07,1.31,0.2,1.96
			c0.13,0.63,0.32,1.26,0.57,1.87c0.25,0.6,0.56,1.18,0.92,1.72c0.36,0.55,0.78,1.06,1.24,1.52c0.46,0.46,0.97,0.88,1.52,1.25
			c0.54,0.36,1.12,0.67,1.73,0.92c0.6,0.25,1.23,0.44,1.87,0.57s1.3,0.19,1.95,0.19s1.31-0.06,1.96-0.19
			c0.63-0.13,1.26-0.32,1.87-0.57c0.6-0.25,1.18-0.56,1.72-0.92c0.55-0.37,1.06-0.79,1.52-1.25c0.46-0.46,0.88-0.97,1.25-1.52
			c0.36-0.54,0.67-1.12,0.92-1.72c0.25-0.61,0.44-1.24,0.57-1.87c0.13-0.65,0.19-1.31,0.19-1.96
			C344.179,431.45,344.119,430.79,343.989,430.15z"/>
	</g>
</g>
<g>
</g>
<g>
</g>
<g>
</g>
<g>
</g>
<g>
</g>
<g>
</g>
<g>
</g>
<g>
</g>
<g>
</g>
<g>
</g>
<g>
</g>
<g>
</g>
<g>
</g>
<g>
</g>
<g>
</g>
</svg>
