<?xml version="1.0" encoding="iso-8859-1"?>
<!-- Generator: Adobe Illustrator 19.0.0, SVG Export Plug-In . SVG Version: 6.00 Build 0)  -->
<svg version="1.1" id="Capa_1" xmlns="http://www.w3.org/2000/svg" xmlns:xlink="http://www.w3.org/1999/xlink" x="0px" y="0px"
	 viewBox="0 0 512 512" style="enable-background:new 0 0 512 512;" xml:space="preserve">
<g>
	<g>
		<path d="M421.903,192.294h-3.348v-25.795c0-24.428-19.873-44.301-44.301-44.301h-20.398V75.063
			c0-21.096-17.162-38.258-38.258-38.258H196.532v-1.858c0-5.523-4.477-10-10-10h-30.718V10c0-5.523-4.478-10-10-10H90.097
			c-5.522,0-10,4.477-10,10v492c0,5.523,4.478,10,10,10h55.718c5.522,0,10-4.477,10-10v-42.015h20.718v6.52c0,5.523,4.478,10,10,10
			c5.523,0,10-4.477,10-10v-88.031c0-5.523-4.477-10-10-10c-5.522,0-10,4.477-10,10v7.923h-20.718V98.535h30.718
			c5.523,0,10-4.477,10-10v-1.858h107.453v35.521h-20.397c-24.428,0-44.302,19.874-44.302,44.301v25.795h-3.348
			c-5.522,0-10,4.477-10,10v35.636c0,5.523,4.478,10,10,10h185.964c5.523,0,10-4.477,10-10v-35.636
			C431.903,196.77,427.426,192.294,421.903,192.294z M135.814,492h-35.718V20h35.718V492z M176.532,406.398v33.588h-20.718v-33.588
			H176.532z M176.532,46.805v29.872v1.858h-20.718V44.947h20.718V46.805z M196.532,66.677v-9.872H315.6
			c10.067,0,18.258,8.19,18.258,18.258v47.135h-9.872V85.353c-0.001-10.298-8.379-18.676-18.676-18.676H196.532z M259.287,166.499
			c0-13.4,10.901-24.301,24.302-24.301h90.666c13.399,0,24.301,10.901,24.301,24.301v25.795H259.287V166.499z M411.903,227.93
			H245.939v-15.636h165.964V227.93z"/>
	</g>
</g>
<g>
	<g>
		<path d="M127.761,127.87c-0.131-0.64-0.322-1.27-0.572-1.87c-0.25-0.61-0.56-1.19-0.92-1.73c-0.37-0.55-0.779-1.06-1.239-1.52
			c-0.471-0.46-0.98-0.88-1.52-1.24c-0.55-0.36-1.13-0.67-1.73-0.92c-0.601-0.25-1.23-0.45-1.87-0.57c-1.29-0.26-2.62-0.26-3.91,0
			c-0.641,0.12-1.271,0.32-1.87,0.57s-1.18,0.56-1.73,0.92c-0.54,0.36-1.06,0.78-1.52,1.24s-0.88,0.97-1.24,1.52
			c-0.359,0.54-0.67,1.12-0.92,1.73c-0.25,0.6-0.439,1.23-0.57,1.87c-0.13,0.64-0.199,1.3-0.199,1.95c0,2.63,1.069,5.21,2.93,7.07
			c0.46,0.46,0.979,0.88,1.52,1.25c0.551,0.36,1.131,0.671,1.73,0.921c0.599,0.25,1.229,0.44,1.87,0.57
			c0.649,0.13,1.3,0.19,1.95,0.19c0.659,0,1.31-0.06,1.96-0.19c0.64-0.13,1.27-0.32,1.87-0.57s1.18-0.56,1.73-0.921
			c0.54-0.37,1.05-0.79,1.52-1.25c1.859-1.86,2.93-4.44,2.93-7.07C127.961,129.17,127.891,128.51,127.761,127.87z"/>
	</g>
</g>
<g>
	<g>
		<path d="M117.955,158.322c-5.522,0-10,4.477-10,10v213.857c0,5.523,4.478,10,10,10c5.522,0,10-4.477,10-10V168.322
			C127.955,162.799,123.478,158.322,117.955,158.322z"/>
	</g>
</g>
<g>
	<g>
		<path d="M272.887,263.376c-1.884-1.952-4.481-3.055-7.194-3.055c-2.714,0-5.311,1.102-7.195,3.055
			c-6.541,6.776-21.756,23.952-21.756,37.044c0,15.964,12.987,28.952,28.951,28.952s28.952-12.987,28.952-28.951
			C294.645,287.329,279.429,270.153,272.887,263.376z M265.692,309.373c-4.936,0-8.951-4.016-8.952-8.905
			c0.167-2.511,3.925-8.605,8.952-14.948c5.018,6.33,8.77,12.412,8.952,14.932C274.628,305.374,270.618,309.373,265.692,309.373z"/>
	</g>
</g>
<g>
	<g>
		<path d="M336.117,260.151c-1.885-1.953-4.481-3.055-7.195-3.055c-2.713,0-5.311,1.103-7.194,3.055
			c-6.542,6.777-21.758,23.953-21.758,37.045c0,15.964,12.988,28.952,28.952,28.952c15.964-0.001,28.951-12.989,28.951-28.953
			C357.873,284.103,342.658,266.927,336.117,260.151z M328.922,306.147c-4.936,0-8.952-4.016-8.953-8.905
			c0.167-2.51,3.922-8.6,8.947-14.941c4.983,6.308,8.777,12.445,8.957,14.925C337.856,302.147,333.848,306.147,328.922,306.147z"/>
	</g>
</g>
<g>
	<g>
		<path d="M399.344,263.376c-1.883-1.952-4.481-3.054-7.194-3.054c-2.714,0-5.311,1.102-7.195,3.055
			c-6.541,6.776-21.756,23.952-21.756,37.044c0,15.964,12.987,28.952,28.951,28.952s28.952-12.988,28.952-28.952
			C421.102,287.329,405.886,270.153,399.344,263.376z M392.15,309.373c-4.936,0-8.951-4.016-8.952-8.905
			c0.167-2.511,3.925-8.605,8.952-14.948c5.018,6.33,8.771,12.412,8.952,14.932C401.086,305.374,397.076,309.373,392.15,309.373z"/>
	</g>
</g>
<g>
	<g>
		<path d="M304.503,331.83c-1.885-1.954-4.481-3.056-7.195-3.056c-2.713,0-5.31,1.103-7.194,3.055
			c-6.542,6.777-21.758,23.953-21.758,37.045c0,15.964,12.988,28.952,28.952,28.952s28.951-12.988,28.951-28.952
			C326.259,355.782,311.044,338.606,304.503,331.83z M297.308,377.825c-4.936,0-8.952-4.016-8.953-8.905
			c0.167-2.511,3.925-8.605,8.953-14.948c5.018,6.33,8.77,12.412,8.951,14.932C306.242,373.826,302.233,377.825,297.308,377.825z"/>
	</g>
</g>
<g>
	<g>
		<path d="M367.731,331.829c-1.884-1.953-4.481-3.055-7.195-3.055s-5.311,1.103-7.195,3.055
			c-6.541,6.776-21.756,23.952-21.756,37.044c0,15.964,12.987,28.952,28.951,28.952s28.951-12.988,28.951-28.952
			C389.487,355.781,374.272,338.605,367.731,331.829z M360.536,377.825c-4.936,0-8.951-4.016-8.952-8.905
			c0.167-2.511,3.925-8.604,8.952-14.948c5.018,6.331,8.77,12.412,8.951,14.932C369.471,373.826,365.462,377.825,360.536,377.825z"
			/>
	</g>
</g>
<g>
</g>
<g>
</g>
<g>
</g>
<g>
</g>
<g>
</g>
<g>
</g>
<g>
</g>
<g>
</g>
<g>
</g>
<g>
</g>
<g>
</g>
<g>
</g>
<g>
</g>
<g>
</g>
<g>
</g>
</svg>
