<?xml version="1.0" encoding="iso-8859-1"?>
<!-- Generator: Adobe Illustrator 19.0.0, SVG Export Plug-In . SVG Version: 6.00 Build 0)  -->
<svg version="1.1" id="Capa_1" xmlns="http://www.w3.org/2000/svg" xmlns:xlink="http://www.w3.org/1999/xlink" x="0px" y="0px"
	 viewBox="0 0 511.999 511.999" style="enable-background:new 0 0 511.999 511.999;" xml:space="preserve">
<g>
	<g>
		<path d="M430.348,191.656h-33.975H78.996c-17.053,0-30.93-13.853-30.973-30.898v-0.082c0-0.008-0.001-0.016-0.001-0.024
			c0.016-17.066,13.904-30.946,30.974-30.946h52.522c4.207,0,7.615-3.409,7.615-7.615s-3.408-7.615-7.615-7.615H78.996
			c-25.478,0-46.205,20.728-46.205,46.206c0,0.026,0.002,0.052,0.002,0.078v254.535c0,4.206,3.409,7.615,7.615,7.615
			c4.207,0,7.615-3.409,7.615-7.615V194.937c8.201,7.422,19.067,11.949,30.973,11.949h317.377h33.975
			c8.612,0,15.619,7.006,15.619,15.618v53.925c0,4.206,3.409,7.615,7.615,7.615c4.206,0,7.615-3.409,7.615-7.615v-53.925
			C461.197,205.495,447.358,191.656,430.348,191.656z"/>
	</g>
</g>
<g>
	<g>
		<path d="M453.581,404.779c-4.207,0-7.615,3.409-7.615,7.615v68.757c0,8.612-7.006,15.618-15.619,15.618H78.992
			c-17.076,0-30.969-13.898-30.969-30.98v-25.11c0-4.206-3.408-7.615-7.615-7.615c-4.206,0-7.615,3.409-7.615,7.615v25.11
			c0,25.481,20.725,46.21,46.199,46.21h351.356c17.01,0,30.849-13.838,30.849-30.848v-68.757
			C461.196,408.188,457.788,404.779,453.581,404.779z"/>
	</g>
</g>
<g>
	<g>
		<path d="M437.378,114.477h-6.044c-4.207,0-7.615,3.409-7.615,7.615s3.409,7.615,7.615,7.615h6.044
			c4.735,0,8.589,3.853,8.589,8.589v44.026c0,4.206,3.408,7.615,7.615,7.615s7.615-3.409,7.615-7.615v-44.026
			C461.196,125.161,450.512,114.477,437.378,114.477z"/>
	</g>
</g>
<g>
	<g>
		<path d="M411.304,111.656L308.593,8.945C302.825,3.177,295.154,0,286.994,0c-8.161,0-15.832,3.177-21.598,8.945l-32.958,32.957
			c-2.975,2.974-2.975,7.795-0.001,10.769c2.974,2.974,7.796,2.974,10.769,0l32.959-32.957c2.891-2.892,6.737-4.484,10.83-4.484
			c4.092,0,7.937,1.592,10.828,4.484l102.711,102.711c5.972,5.971,5.972,15.688,0.001,21.66l-23.604,23.603
			c-2.975,2.974-2.975,7.795-0.001,10.769c1.487,1.487,3.436,2.231,5.385,2.231c1.948,0,3.898-0.743,5.384-2.231l23.605-23.603
			C423.213,142.944,423.213,123.566,411.304,111.656z"/>
	</g>
</g>
<g>
	<g>
		<path d="M225.693,59.416c-2.974-2.974-7.795-2.974-10.77,0L106.65,167.687c-2.974,2.974-2.974,7.796,0,10.77
			c1.487,1.487,3.436,2.231,5.385,2.231c1.948,0,3.898-0.743,5.385-2.231L225.693,70.185
			C228.667,67.211,228.667,62.389,225.693,59.416z"/>
	</g>
</g>
<g>
	<g>
		<path d="M365.285,155.193c-0.646-2.593-2.603-4.658-5.159-5.44c-2.729-0.836-5.128-2.279-7.145-4.304
			c-3.259-3.255-5.054-7.586-5.054-12.193s1.795-8.939,5.067-12.206c2.004-2.011,4.404-3.455,7.132-4.291
			c2.556-0.783,4.513-2.847,5.159-5.44c0.647-2.593-0.115-5.336-2.004-7.225L316.157,56.97c-1.888-1.89-4.631-2.65-7.225-2.005
			c-2.593,0.646-4.658,2.603-5.44,5.16c-0.833,2.718-2.279,5.121-4.303,7.145c-3.256,3.258-7.587,5.053-12.195,5.053
			s-8.939-1.795-12.205-5.065c-2.012-2.005-3.456-4.404-4.291-7.131c-0.783-2.556-2.848-4.514-5.44-5.161
			c-2.591-0.648-5.337,0.114-7.226,2.004L147.12,167.687c-2.974,2.974-2.974,7.796,0.001,10.77c2.973,2.974,7.795,2.973,10.769,0
			L261.342,74.996c0.829,1.067,1.725,2.082,2.683,3.036c6.132,6.139,14.289,9.52,22.968,9.52c0.001,0,0.001,0,0.001,0
			c8.679,0,16.837-3.381,22.967-9.517c0.957-0.957,1.853-1.975,2.682-3.043l32.611,32.61c-1.068,0.83-2.082,1.726-3.037,2.684
			c-6.139,6.132-9.52,14.289-9.52,22.969c0,8.68,3.381,16.837,9.507,22.955c0.958,0.963,1.979,1.863,3.051,2.696l-8.783,8.783
			c-2.975,2.974-2.975,7.796-0.001,10.77c1.487,1.487,3.437,2.231,5.385,2.231s3.898-0.743,5.385-2.231l16.039-16.039
			C365.17,160.528,365.931,157.786,365.285,155.193z"/>
	</g>
</g>
<g>
	<g>
		<path d="M288.47,171.337c-2.247-9.613-7.14-18.401-14.15-25.411c-10.025-10.025-23.355-15.547-37.533-15.547
			c-14.177,0-27.506,5.521-37.533,15.548c-7.009,7.01-11.903,15.797-14.151,25.411c-0.957,4.096,1.586,8.191,5.682,9.149
			c4.094,0.956,8.19-1.587,9.148-5.682c1.601-6.847,5.091-13.109,10.09-18.109c7.149-7.15,16.652-11.086,26.762-11.086
			s19.614,3.937,26.763,11.085c5,5,8.488,11.263,10.09,18.109c0.821,3.512,3.951,5.883,7.408,5.883c0.574,0,1.158-0.065,1.74-0.201
			C286.884,179.529,289.427,175.433,288.47,171.337z"/>
	</g>
</g>
<g>
	<g>
		<path d="M454.757,289.123h-67.919c-30.486,0-55.289,24.803-55.289,55.289s24.803,55.289,55.289,55.289h67.919
			c13.482,0,24.45-10.969,24.45-24.45v-61.678C479.207,300.092,468.239,289.123,454.757,289.123z M463.977,375.251
			c0,5.084-4.136,9.22-9.22,9.22h-67.919c-22.089,0-40.059-17.97-40.059-40.059s17.97-40.059,40.059-40.059h67.919
			c5.084,0,9.22,4.136,9.22,9.22V375.251z"/>
	</g>
</g>
<g>
	<g>
		<path d="M385.778,317.727c-14.713,0-26.684,11.971-26.684,26.685c0,14.714,11.971,26.685,26.684,26.685
			s26.684-11.971,26.684-26.685C412.462,329.698,400.492,317.727,385.778,317.727z M385.778,355.867
			c-6.316,0-11.454-5.139-11.454-11.455s5.139-11.455,11.454-11.455s11.454,5.139,11.454,11.455S392.095,355.867,385.778,355.867z"
			/>
	</g>
</g>
<g>
</g>
<g>
</g>
<g>
</g>
<g>
</g>
<g>
</g>
<g>
</g>
<g>
</g>
<g>
</g>
<g>
</g>
<g>
</g>
<g>
</g>
<g>
</g>
<g>
</g>
<g>
</g>
<g>
</g>
</svg>
