<?xml version="1.0" encoding="iso-8859-1"?>
<!-- Generator: Adobe Illustrator 19.0.0, SVG Export Plug-In . SVG Version: 6.00 Build 0)  -->
<svg version="1.1" id="Capa_1" xmlns="http://www.w3.org/2000/svg" xmlns:xlink="http://www.w3.org/1999/xlink" x="0px" y="0px"
	 viewBox="0 0 512 512" style="enable-background:new 0 0 512 512;" xml:space="preserve">
<g>
	<g>
		<path d="M502,289.459h-38.349v-14.773c0-5.522-4.478-10-10-10h-49.494c-5.522,0-10,4.478-10,10v14.773h-9.525v-32.734
			c0-5.523-4.478-10-10-10h-53.277v-12.453h14.773c5.522,0,10-4.478,10-10v-49.494c0-5.522-4.478-10-10-10h-14.773v-46.187h14.773
			c5.522,0,10-4.478,10-10V59.097c0-5.522-4.478-10-10-10H175.873c-5.523,0-10,4.478-10,10v49.494c0,5.522,4.477,10,10,10h14.772
			v46.187h-14.772c-5.523,0-10,4.478-10,10v49.494c0,5.522,4.477,10,10,10h14.772v12.453h-53.277c-5.523,0-10,4.478-10,10v32.734
			h-9.525v-14.773c0-5.522-4.477-10-10-10H58.349c-5.523,0-10,4.478-10,10v14.773H10c-5.523,0-10,4.477-10,10v110.71
			c0,5.522,4.477,10,10,10h38.349v14.771c0,5.522,4.477,10,10,10h49.494c5.523,0,10-4.478,10-10v-14.771h9.525v32.734
			c0,5.523,4.477,10,10,10h237.264c5.522,0,10-4.477,10-10v-32.734h9.525v14.771c0,5.522,4.478,10,10,10h49.494
			c5.522,0,10-4.478,10-10v-14.771H502c5.522,0,10-4.478,10-10v-110.71C512,293.936,507.522,289.459,502,289.459z M48.349,400.169
			H20v-90.71h28.349V400.169z M97.843,424.94H68.349V284.686h29.494V424.94z M127.368,400.169h-9.525v-90.71h9.525V400.169z
			 M185.873,98.591V69.097h140.254v29.494H185.873z M301.354,118.591v46.187h-90.709v-46.187H301.354z M185.873,214.271v-29.494
			h140.254v29.494H185.873z M301.354,234.271v12.453h-90.709v-12.453H301.354z M364.632,410.169v0.583H207.573
			c-5.523,0-10,4.477-10,10c0,5.522,4.477,10,10,10h157.059v12.151H147.368v-32.734v-110.71v-0.583h157.059c5.522,0,10-4.478,10-10
			c0-5.523-4.478-10-10-10H147.368v-12.151h217.264V410.169z M394.157,400.169h-9.525v-90.71h9.525V400.169z M443.651,424.94
			h-29.494V284.686h29.494V424.94z M492,400.169h-28.349v-90.71H492V400.169z"/>
	</g>
</g>
<g>
	<g>
		<path d="M352.51,286.921c-0.13-0.641-0.32-1.27-0.57-1.87c-0.25-0.6-0.56-1.18-0.92-1.73c-0.37-0.54-0.779-1.05-1.25-1.52
			c-0.46-0.46-0.97-0.87-1.52-1.24c-0.54-0.359-1.12-0.67-1.72-0.92c-0.61-0.25-1.23-0.439-1.87-0.57
			c-3.261-0.649-6.7,0.41-9.03,2.73c-0.46,0.47-0.88,0.979-1.24,1.52c-0.359,0.551-0.67,1.131-0.92,1.73s-0.439,1.229-0.57,1.87
			c-0.13,0.649-0.199,1.3-0.199,1.96c0,2.63,1.069,5.21,2.93,7.07c0.459,0.459,0.969,0.879,1.518,1.239
			c0.54,0.36,1.12,0.67,1.73,0.92c0.6,0.25,1.229,0.44,1.87,0.57c0.64,0.13,1.3,0.19,1.95,0.19c0.649,0,1.31-0.06,1.96-0.19
			c0.64-0.13,1.27-0.32,1.87-0.57c0.6-0.25,1.18-0.56,1.72-0.92c0.55-0.359,1.06-0.779,1.52-1.239c1.87-1.87,2.931-4.44,2.931-7.07
			C352.7,288.221,352.639,287.57,352.51,286.921z"/>
	</g>
</g>
<g>
	<g>
		<path d="M179.1,418.8c-0.13-0.64-0.32-1.271-0.57-1.87c-0.25-0.61-0.56-1.189-0.92-1.729c-0.36-0.551-0.78-1.061-1.24-1.521
			c-0.46-0.46-0.98-0.88-1.52-1.24c-0.55-0.359-1.13-0.67-1.73-0.92s-1.23-0.439-1.87-0.569c-1.29-0.261-2.62-0.261-3.91,0
			c-0.64,0.13-1.27,0.319-1.87,0.569c-0.6,0.25-1.18,0.561-1.73,0.92c-0.54,0.36-1.05,0.78-1.52,1.24
			c-0.46,0.46-0.87,0.97-1.24,1.521c-0.36,0.54-0.67,1.119-0.92,1.729c-0.25,0.6-0.44,1.23-0.57,1.87s-0.19,1.3-0.19,1.95
			c0,0.649,0.06,1.31,0.19,1.96c0.13,0.63,0.32,1.26,0.57,1.87c0.25,0.6,0.56,1.18,0.92,1.72c0.37,0.55,0.79,1.06,1.25,1.52
			c0.46,0.46,0.97,0.881,1.52,1.25c0.54,0.36,1.12,0.671,1.72,0.91c0.6,0.25,1.23,0.45,1.87,0.58c0.65,0.13,1.3,0.19,1.96,0.19
			c0.65,0,1.3-0.06,1.95-0.19c0.64-0.13,1.27-0.33,1.87-0.58c0.6-0.239,1.18-0.55,1.73-0.91c0.55-0.369,1.06-0.79,1.52-1.25
			c0.46-0.46,0.88-0.97,1.24-1.52c0.36-0.54,0.67-1.12,0.92-1.72c0.25-0.61,0.44-1.24,0.57-1.87c0.13-0.65,0.2-1.311,0.2-1.96
			C179.3,420.1,179.23,419.44,179.1,418.8z"/>
	</g>
</g>
<g>
</g>
<g>
</g>
<g>
</g>
<g>
</g>
<g>
</g>
<g>
</g>
<g>
</g>
<g>
</g>
<g>
</g>
<g>
</g>
<g>
</g>
<g>
</g>
<g>
</g>
<g>
</g>
<g>
</g>
</svg>
